<?xml version="1.0" encoding="utf-8"?>
<!-- Generator: Adobe Illustrator 27.5.0, SVG Export Plug-In . SVG Version: 6.00 Build 0)  -->
<svg version="1.1" id="Layer_1" xmlns="http://www.w3.org/2000/svg" xmlns:xlink="http://www.w3.org/1999/xlink" x="0px" y="0px"
	 viewBox="0 0 337.45 186.122" style="enable-background:new 0 0 337.45 186.122;" xml:space="preserve">
<g>
	<path style="fill:#CDF2FA;" d="M306.961,183.107c10.529-0.642,17.832-6.413,20.249-10.17c6.511-10.122,6.947-24.682,0.938-35.191
		c-6.461-11.301-19.705-19.033-19.977-32.434c-0.217-10.701,8.405-19.377,9.436-30.018c1.357-14.01-11.403-25.544-23.965-27.036
		c-12.563-1.493-24.827,3.948-36.885,8.151c-12.059,4.203-25.596,7.121-36.965,0.974c-12.708-6.872-19.017-22.983-29.876-33.055
		c-15.31-14.2-38.277-14.386-56.497-5.428c-7.091,3.486-13.981,8.546-17.579,16.202c-4.378,9.315-3.106,20.518-4.413,30.934
		c-1.966,15.677-10.322,30.216-22.273,38.753c-10.368,7.407-23.447,10.719-31.343,21.256c-11.636,15.529-6.712,39.158,1.506,57.201
		L306.961,183.107z"/>
	<g>
		<g>
			<g>
				<path style="fill:#3A527E;" d="M118.872,92.545v42.532c0.56,0.115,1.129,0.17,1.7,0.191l0.993-42.723H118.872z"/>
				<path style="fill:#3A527E;" d="M121.638,92.545l2.661,42.615c0.566,0.044,1.135,0.024,1.704,0.003l-1.669-42.617H121.638z"/>
				<path style="fill:#3A527E;" d="M126.262,92.545l2.663,42.648c0.568-0.019,1.135-0.048,1.7-0.088l-1.666-42.56H126.262z"/>
			</g>
		</g>
		<g>
			<g>
				<path style="fill:#49A199;" d="M88.231,127.546c4.864-0.742,9.806-0.565,14.685-1.179c6.003-0.755,12.127-2.352,17.159-5.835
					c4.751-3.288,8.694-7.946,10.717-13.391c0.731-1.967,1.205-4.023,1.388-6.11c-0.005-0.299-0.014-0.598-0.031-0.896
					c-0.148-2.597-0.792-5.299-2.462-7.358c-1.916-2.362-5.044-3.577-8.035-3.628c-2.987-0.051-5.915,0.944-8.526,2.356
					c0.156-0.566,0.369-1.12,0.385-1.718c0.021-0.806-0.197-1.571-0.545-2.292c-0.657-1.362-1.68-2.617-2.946-3.453
					c-2.397-1.583-5.493-1.775-8.246-1.222c-5.25,1.055-9.889,4.295-13.205,8.424c-3.354,4.178-5.523,9.195-7.044,14.298
					c-0.762,2.558-1.368,5.16-1.866,7.782c-0.679,3.575-1.062,7.176-1.293,10.806c-0.091,1.433-0.11,2.879-0.293,4.304
					c-0.133,1.04-0.285,2.099-0.243,3.149c0.003,0.086,0.01,0.182,0.019,0.281C80.535,129.195,84.59,128.101,88.231,127.546z"/>
			</g>
			<g>
				<path style="fill:#49A199;" d="M106.889,87.959c2.169,2.594,4.675,4.912,7.409,6.899c2.778,2.019,5.804,3.72,9.011,4.956
					c2.808,1.083,5.767,1.814,8.773,2.027c0.034-0.27,0.076-0.54,0.1-0.811c-0.005-0.299-0.014-0.598-0.031-0.896
					c-0.148-2.597-0.792-5.299-2.462-7.358c-1.916-2.362-5.044-3.577-8.035-3.628c-2.987-0.051-5.915,0.944-8.526,2.356
					c0.156-0.566,0.369-1.12,0.385-1.718c0.021-0.806-0.197-1.571-0.545-2.292c-0.657-1.362-1.68-2.617-2.946-3.453
					c-1.99-1.314-4.462-1.668-6.82-1.434C104.247,84.508,105.501,86.3,106.889,87.959z"/>
				<path style="fill:#49A199;" d="M125.961,104.759c-2.322,0.057-4.726,0.746-6.465,2.341c-1.751,1.606-2.514,3.869-2.457,6.21
					c0.06,2.449,0.884,4.857,2.003,7.015c0.114,0.22,0.233,0.437,0.354,0.654c0.228-0.147,0.457-0.294,0.681-0.449
					c4.751-3.288,8.694-7.946,10.717-13.391c0.139-0.374,0.268-0.752,0.387-1.132C129.658,105.058,127.728,104.716,125.961,104.759z
					"/>
			</g>
			<g>
				<path style="fill:#6ABBB7;" d="M148.954,101.634c-4.864-0.742-9.806-0.565-14.685-1.18c-6.003-0.755-12.127-2.352-17.159-5.835
					c-4.751-3.288-8.694-7.946-10.717-13.391c-0.731-1.967-1.205-4.023-1.388-6.11c0.005-0.299,0.013-0.598,0.03-0.896
					c0.148-2.597,0.792-5.299,2.462-7.358c1.916-2.363,5.044-3.577,8.035-3.628c2.987-0.051,5.915,0.944,8.526,2.356
					c-0.156-0.566-0.369-1.12-0.384-1.718c-0.021-0.806,0.197-1.571,0.545-2.292c0.657-1.362,1.68-2.618,2.946-3.453
					c2.397-1.583,5.493-1.775,8.246-1.222c5.25,1.055,9.889,4.294,13.205,8.424c3.354,4.178,5.523,9.195,7.044,14.298
					c0.762,2.558,1.368,5.16,1.866,7.781c0.679,3.575,1.062,7.176,1.293,10.806c0.091,1.433,0.11,2.879,0.293,4.304
					c0.134,1.04,0.285,2.099,0.243,3.149c-0.003,0.086-0.01,0.182-0.019,0.281C156.65,103.284,152.594,102.189,148.954,101.634z"/>
			</g>
			<g>
				<path style="fill:#6ABBB7;" d="M152.309,135.335c-3.701-0.564-7.461-0.43-11.173-0.898c-4.567-0.575-9.226-1.789-13.055-4.44
					c-3.614-2.502-6.614-6.045-8.153-10.187c-0.556-1.496-0.917-3.061-1.056-4.648c0.004-0.228,0.01-0.455,0.023-0.682
					c0.113-1.976,0.602-4.031,1.873-5.598c1.458-1.797,3.838-2.721,6.113-2.76c2.273-0.039,4.5,0.718,6.486,1.792
					c-0.118-0.431-0.281-0.852-0.292-1.307c-0.016-0.613,0.15-1.196,0.415-1.744c0.5-1.036,1.278-1.991,2.241-2.627
					c1.824-1.204,4.179-1.351,6.273-0.93c3.994,0.802,7.524,3.267,10.046,6.409c2.552,3.179,4.202,6.995,5.359,10.878
					c0.58,1.946,1.041,3.926,1.419,5.92c0.517,2.72,0.808,5.46,0.984,8.222c0.069,1.09,0.084,2.19,0.223,3.275
					c0.102,0.791,0.217,1.597,0.185,2.396c-0.003,0.065-0.008,0.138-0.015,0.214C158.165,136.59,155.079,135.758,152.309,135.335z"
					/>
			</g>
		</g>
	</g>
	<g>
		<g>
			<g>
				<path style="fill:#6ABBB7;" d="M235.794,51.791c-0.756-0.735-1.314-1.632-1.739-2.594c-0.101-0.285-0.195-0.57-0.285-0.851
					c-0.669-2.09-0.789-4.408-0.245-6.576c0.308-1.227,0.829-2.381,1.552-3.435c0.086-0.125,0.217-0.128,0.329-0.034
					c1.62,1.365,2.535,3.542,3.06,5.551c0.567,2.169,0.634,4.397,0.183,6.618c-0.258,0.874-0.63,1.718-1.123,2.488
					C236.886,52.675,236.302,52.285,235.794,51.791z"/>
				<path style="fill:#6ABBB7;" d="M232.828,59.687c-0.756-0.735-1.314-1.632-1.739-2.594c-0.101-0.285-0.194-0.57-0.285-0.851
					c-0.669-2.09-0.789-4.408-0.245-6.576c0.308-1.227,0.828-2.381,1.552-3.435c0.086-0.125,0.217-0.128,0.329-0.034
					c1.62,1.365,2.535,3.541,3.06,5.551c0.567,2.169,0.634,4.397,0.182,6.618c-0.258,0.874-0.63,1.718-1.123,2.488
					C233.92,60.571,233.335,60.181,232.828,59.687z"/>
				<path style="fill:#6ABBB7;" d="M230.368,66.999c-0.887-0.57-1.612-1.337-2.22-2.196c-0.155-0.259-0.304-0.52-0.448-0.777
					c-1.071-1.915-1.65-4.163-1.549-6.396c0.057-1.264,0.338-2.498,0.838-3.675c0.059-0.139,0.188-0.168,0.316-0.098
					c1.859,1.015,3.189,2.966,4.104,4.832c0.988,2.013,1.496,4.182,1.496,6.45c-0.079,0.908-0.276,1.809-0.605,2.662
					C231.614,67.649,230.963,67.382,230.368,66.999z"/>
				<path style="fill:#6ABBB7;" d="M228.632,74.261c-0.974-0.404-1.824-1.031-2.574-1.768c-0.199-0.227-0.391-0.458-0.579-0.686
					c-1.394-1.695-2.362-3.804-2.658-6.02c-0.167-1.254-0.11-2.518,0.173-3.765c0.034-0.148,0.155-0.199,0.293-0.153
					c2.01,0.67,3.664,2.354,4.895,4.028c1.329,1.806,2.214,3.851,2.615,6.083c0.083,0.908,0.049,1.829-0.124,2.727
					C229.973,74.679,229.285,74.532,228.632,74.261z"/>
				<path style="fill:#6ABBB7;" d="M227.355,83.57c-1.157-0.455-2.171-1.152-3.068-1.968c-0.238-0.251-0.469-0.505-0.694-0.757
					c-1.671-1.872-2.844-4.191-3.224-6.617c-0.215-1.373-0.164-2.754,0.154-4.114c0.038-0.161,0.18-0.215,0.345-0.163
					c2.385,0.76,4.364,2.624,5.843,4.47c1.596,1.992,2.67,4.24,3.175,6.685c0.11,0.993,0.083,2.001-0.11,2.979
					C228.947,84.045,228.132,83.875,227.355,83.57z"/>
				<path style="fill:#6ABBB7;" d="M226.627,91.405c-1.123-0.296-2.144-0.853-3.073-1.546c-0.251-0.218-0.495-0.441-0.734-0.662
					c-1.773-1.642-3.144-3.8-3.797-6.174c-0.37-1.344-0.495-2.732-0.372-4.135c0.014-0.166,0.139-0.24,0.297-0.21
					c2.293,0.432,4.349,2.024,5.942,3.666c1.719,1.773,2.99,3.873,3.76,6.248c0.226,0.978,0.326,1.989,0.271,2.995
					C228.154,91.662,227.381,91.604,226.627,91.405z"/>
				<path style="fill:#6ABBB7;" d="M225.826,99.336c-1.123-0.296-2.144-0.853-3.073-1.546c-0.251-0.218-0.495-0.441-0.734-0.662
					c-1.773-1.642-3.144-3.8-3.797-6.174c-0.37-1.344-0.495-2.732-0.372-4.135c0.015-0.166,0.139-0.24,0.297-0.211
					c2.293,0.432,4.349,2.024,5.942,3.667c1.719,1.773,2.99,3.873,3.76,6.248c0.226,0.979,0.327,1.989,0.271,2.994
					C227.352,99.593,226.58,99.535,225.826,99.336z"/>
				<path style="fill:#6ABBB7;" d="M226.279,107.651c-1.154-0.136-2.242-0.546-3.258-1.103c-0.278-0.181-0.552-0.368-0.819-0.553
					c-1.985-1.379-3.643-3.325-4.62-5.585c-0.553-1.279-0.87-2.637-0.944-4.043c-0.009-0.167,0.105-0.257,0.265-0.25
					c2.331,0.108,4.589,1.398,6.395,2.803c1.949,1.516,3.5,3.419,4.594,5.664c0.36,0.937,0.6,1.924,0.685,2.927
					C227.826,107.693,227.053,107.743,226.279,107.651z"/>
				<path style="fill:#6ABBB7;" d="M225.908,114.922c-1.154-0.137-2.242-0.546-3.258-1.103c-0.279-0.181-0.552-0.368-0.819-0.553
					c-1.985-1.379-3.643-3.325-4.62-5.585c-0.553-1.279-0.871-2.636-0.944-4.043c-0.009-0.167,0.104-0.257,0.265-0.25
					c2.331,0.108,4.589,1.398,6.395,2.803c1.949,1.516,3.5,3.419,4.594,5.664c0.36,0.937,0.6,1.924,0.685,2.928
					C227.454,114.964,226.682,115.014,225.908,114.922z"/>
				<path style="fill:#6ABBB7;" d="M227.063,125.027c-1.197-0.16-2.329-0.62-3.388-1.242c-0.29-0.202-0.575-0.41-0.854-0.616
					c-2.07-1.535-3.805-3.692-4.837-6.188c-0.584-1.413-0.925-2.91-1.013-4.459c-0.01-0.183,0.106-0.282,0.273-0.273
					c2.418,0.139,4.77,1.578,6.654,3.14c2.034,1.686,3.658,3.794,4.811,6.275c0.381,1.035,0.639,2.124,0.735,3.229
					C228.668,125.086,227.867,125.135,227.063,125.027z"/>
				<path style="fill:#6ABBB7;" d="M245.505,41.204c-4.309,4.492-7.533,9.781-9.916,15.515c-2.462,5.922-4.057,12.182-5.2,18.481
					c-1.116,6.151-1.81,12.374-2.338,18.6c-0.683,8.051-0.663,16.158-0.023,24.212c0.479,6.018,1.296,12.015,2.459,17.941
					c0.309,0.028,0.62,0.051,0.929,0.081c-0.219-1.069-0.43-2.139-0.62-3.215c-0.699-3.949-1.254-7.923-1.656-11.913
					c-0.806-8.003-0.996-16.069-0.5-24.098c0.394-6.373,1.074-12.763,2.076-19.069c0.998-6.284,2.396-12.523,4.55-18.518
					c2.085-5.8,4.949-11.464,8.923-16.209c0.477-0.569,0.981-1.117,1.493-1.655C245.82,41.212,245.642,41.062,245.505,41.204z"/>
				<path style="fill:#6ABBB7;" d="M231.652,123.436c1.567-0.225,3.043-0.81,4.419-1.586c0.377-0.251,0.746-0.508,1.108-0.764
					c2.684-1.902,4.918-4.542,6.222-7.571c0.738-1.715,1.155-3.523,1.24-5.387c0.01-0.221-0.145-0.337-0.363-0.32
					c-3.169,0.233-6.226,2.028-8.667,3.957c-2.634,2.082-4.723,4.661-6.185,7.674c-0.479,1.255-0.795,2.57-0.9,3.901
					C229.548,123.55,230.6,123.587,231.652,123.436z"/>
				<path style="fill:#6ABBB7;" d="M231.087,114.074c1.583,0.025,3.133-0.319,4.615-0.868c0.412-0.188,0.817-0.384,1.214-0.579
					c2.951-1.454,5.574-3.708,7.34-6.492c1-1.577,1.697-3.296,2.076-5.124c0.045-0.216-0.09-0.355-0.308-0.374
					c-3.166-0.27-6.468,1.019-9.183,2.538c-2.93,1.64-5.4,3.856-7.32,6.6c-0.672,1.163-1.191,2.412-1.505,3.71
					C228.991,113.855,230.024,114.057,231.087,114.074z"/>
				<path style="fill:#6ABBB7;" d="M230.653,105.064c1.357,0.113,2.701-0.102,3.994-0.502c0.361-0.142,0.717-0.292,1.066-0.442
					c2.592-1.115,4.936-2.955,6.568-5.313c0.924-1.335,1.594-2.814,1.994-4.406c0.047-0.188-0.062-0.319-0.249-0.348
					c-2.704-0.42-5.591,0.529-7.983,1.715c-2.582,1.28-4.793,3.096-6.555,5.409c-0.625,0.989-1.123,2.062-1.446,3.19
					C228.865,104.751,229.742,104.988,230.653,105.064z"/>
				<path style="fill:#6ABBB7;" d="M231.066,98.378c1.357-0.068,2.66-0.46,3.89-1.03c0.339-0.189,0.673-0.385,0.999-0.581
					c2.426-1.452,4.515-3.592,5.834-6.153c0.747-1.449,1.225-3.008,1.422-4.644c0.023-0.194-0.102-0.309-0.289-0.313
					c-2.729-0.058-5.466,1.269-7.685,2.766c-2.395,1.616-4.355,3.714-5.809,6.247c-0.495,1.066-0.853,2.199-1.032,3.362
					C229.257,98.304,230.155,98.424,231.066,98.378z"/>
				<path style="fill:#6ABBB7;" d="M231.495,90.213c1.357-0.068,2.66-0.46,3.89-1.03c0.34-0.189,0.673-0.386,0.999-0.581
					c2.426-1.452,4.515-3.592,5.834-6.153c0.747-1.449,1.225-3.008,1.422-4.644c0.023-0.194-0.102-0.309-0.289-0.313
					c-2.729-0.058-5.466,1.269-7.686,2.766c-2.395,1.615-4.355,3.714-5.809,6.247c-0.494,1.066-0.853,2.199-1.032,3.363
					C229.686,90.139,230.584,90.259,231.495,90.213z"/>
				<path style="fill:#6ABBB7;" d="M232.644,81.852c1.357-0.068,2.66-0.46,3.89-1.03c0.34-0.189,0.673-0.385,1-0.581
					c2.425-1.453,4.515-3.593,5.834-6.153c0.747-1.449,1.225-3.008,1.422-4.644c0.023-0.194-0.102-0.309-0.289-0.313
					c-2.729-0.058-5.466,1.269-7.685,2.766c-2.395,1.616-4.355,3.714-5.81,6.247c-0.494,1.066-0.853,2.199-1.032,3.363
					C230.835,81.778,231.734,81.897,232.644,81.852z"/>
				<path style="fill:#6ABBB7;" d="M233.597,75.573c1.357-0.068,2.66-0.46,3.89-1.03c0.339-0.189,0.673-0.386,0.999-0.581
					c2.426-1.452,4.515-3.593,5.834-6.153c0.747-1.449,1.225-3.008,1.422-4.644c0.023-0.194-0.102-0.309-0.289-0.313
					c-2.729-0.058-5.466,1.269-7.685,2.765c-2.395,1.616-4.355,3.714-5.81,6.247c-0.494,1.066-0.853,2.199-1.032,3.363
					C231.788,75.499,232.686,75.619,233.597,75.573z"/>
				<path style="fill:#6ABBB7;" d="M235.003,68.669c1.357-0.068,2.66-0.46,3.89-1.03c0.34-0.189,0.673-0.386,1-0.581
					c2.425-1.452,4.515-3.592,5.834-6.153c0.747-1.449,1.225-3.008,1.422-4.644c0.023-0.194-0.101-0.309-0.289-0.313
					c-2.729-0.058-5.466,1.269-7.686,2.765c-2.395,1.616-4.355,3.714-5.81,6.247c-0.494,1.066-0.853,2.199-1.031,3.363
					C233.194,68.596,234.092,68.715,235.003,68.669z"/>
				<path style="fill:#6ABBB7;" d="M241.311,49.047c0.991-0.664,1.794-1.545,2.463-2.525c0.17-0.295,0.333-0.591,0.49-0.884
					c1.171-2.178,1.778-4.715,1.617-7.217c-0.091-1.416-0.434-2.793-1.023-4.099c-0.07-0.155-0.216-0.184-0.359-0.102
					c-2.08,1.19-3.542,3.415-4.537,5.533c-1.074,2.285-1.603,4.733-1.556,7.276c0.108,1.017,0.349,2.022,0.74,2.969
					C239.916,49.809,240.646,49.492,241.311,49.047z"/>
				<path style="fill:#6ABBB7;" d="M240.26,52.38c1.053-0.053,2.064-0.357,3.019-0.799c0.264-0.147,0.522-0.299,0.776-0.451
					c1.882-1.127,3.504-2.788,4.528-4.775c0.58-1.125,0.951-2.335,1.104-3.604c0.018-0.151-0.079-0.24-0.225-0.243
					c-2.118-0.045-4.243,0.985-5.965,2.146c-1.859,1.254-3.38,2.882-4.509,4.848c-0.384,0.827-0.662,1.706-0.801,2.61
					C238.856,52.322,239.553,52.415,240.26,52.38z"/>
				<path style="fill:#6ABBB7;" d="M237.467,60.904c1.357-0.068,2.66-0.46,3.89-1.03c0.339-0.189,0.673-0.386,0.999-0.581
					c2.426-1.452,4.515-3.592,5.834-6.153c0.747-1.449,1.225-3.008,1.422-4.644c0.023-0.194-0.102-0.309-0.289-0.313
					c-2.729-0.058-5.466,1.269-7.685,2.766c-2.395,1.615-4.355,3.714-5.809,6.247c-0.494,1.066-0.853,2.199-1.032,3.363
					C235.658,60.83,236.556,60.949,237.467,60.904z"/>
			</g>
			<g>
				<path style="fill:#49A199;" d="M257.915,76.38c-0.413-0.671-0.654-1.423-0.786-2.199c-0.021-0.225-0.037-0.449-0.051-0.669
					c-0.103-1.637,0.234-3.34,1.025-4.812c0.448-0.833,1.036-1.575,1.753-2.206c0.085-0.075,0.181-0.053,0.245,0.036
					c0.925,1.286,1.19,3.031,1.204,4.584c0.015,1.676-0.344,3.303-1.078,4.831c-0.347,0.587-0.771,1.131-1.269,1.599
					C258.545,77.22,258.193,76.83,257.915,76.38z"/>
				<path style="fill:#49A199;" d="M254.321,81.562c-0.413-0.672-0.654-1.423-0.786-2.199c-0.021-0.225-0.037-0.449-0.051-0.669
					c-0.103-1.637,0.234-3.34,1.025-4.812c0.448-0.834,1.036-1.575,1.753-2.206c0.085-0.075,0.181-0.053,0.245,0.036
					c0.925,1.286,1.19,3.031,1.204,4.584c0.015,1.676-0.344,3.304-1.078,4.832c-0.347,0.587-0.771,1.131-1.269,1.599
					C254.951,82.402,254.599,82.012,254.321,81.562z"/>
				<path style="fill:#49A199;" d="M251.201,86.413c-0.539-0.576-0.924-1.264-1.208-1.998c-0.065-0.216-0.125-0.432-0.183-0.646
					c-0.426-1.584-0.435-3.32,0.047-4.92c0.273-0.906,0.702-1.749,1.279-2.511c0.068-0.09,0.167-0.088,0.247-0.014
					c1.162,1.076,1.769,2.734,2.092,4.253c0.348,1.64,0.32,3.306-0.095,4.949c-0.223,0.644-0.531,1.261-0.925,1.819
					C251.985,87.112,251.562,86.799,251.201,86.413z"/>
				<path style="fill:#49A199;" d="M248.614,91.36c-0.632-0.471-1.134-1.081-1.543-1.753c-0.102-0.201-0.2-0.403-0.294-0.603
					c-0.701-1.484-1.017-3.19-0.826-4.85c0.108-0.94,0.381-1.846,0.814-2.698c0.051-0.101,0.149-0.116,0.24-0.057
					c1.334,0.853,2.226,2.377,2.812,3.815c0.633,1.552,0.9,3.197,0.783,4.888c-0.106,0.674-0.298,1.336-0.588,1.954
					C249.51,91.908,249.038,91.676,248.614,91.36z"/>
				<path style="fill:#49A199;" d="M245.986,97.876c-0.756-0.542-1.363-1.232-1.865-1.988c-0.127-0.226-0.247-0.452-0.364-0.676
					c-0.869-1.662-1.296-3.558-1.128-5.387c0.095-1.035,0.385-2.027,0.864-2.954c0.057-0.11,0.17-0.123,0.28-0.055
					c1.59,0.987,2.684,2.7,3.419,4.309c0.792,1.736,1.16,3.562,1.079,5.427c-0.101,0.741-0.305,1.466-0.624,2.14
					C247.053,98.511,246.493,98.239,245.986,97.876z"/>
				<path style="fill:#49A199;" d="M244.026,103.423c-0.76-0.42-1.398-1.01-1.945-1.683c-0.142-0.204-0.278-0.41-0.411-0.614
					c-0.986-1.515-1.585-3.33-1.624-5.17c-0.022-1.042,0.141-2.071,0.486-3.066c0.041-0.118,0.145-0.149,0.254-0.098
					c1.583,0.732,2.783,2.262,3.637,3.745c0.922,1.6,1.459,3.355,1.583,5.217c-0.015,0.751-0.127,1.502-0.351,2.221
					C245.085,103.888,244.536,103.705,244.026,103.423z"/>
				<path style="fill:#49A199;" d="M241.995,109.026c-0.76-0.42-1.398-1.011-1.945-1.683c-0.142-0.204-0.278-0.41-0.411-0.614
					c-0.985-1.515-1.585-3.33-1.624-5.171c-0.022-1.042,0.141-2.071,0.486-3.065c0.041-0.118,0.145-0.149,0.254-0.098
					c1.583,0.732,2.783,2.262,3.638,3.745c0.922,1.6,1.459,3.355,1.583,5.218c-0.015,0.75-0.127,1.502-0.351,2.22
					C243.054,109.491,242.505,109.308,241.995,109.026z"/>
				<path style="fill:#49A199;" d="M240.803,115.137c-0.811-0.31-1.525-0.806-2.16-1.396c-0.169-0.182-0.333-0.368-0.492-0.551
					c-1.187-1.363-2.033-3.077-2.328-4.894c-0.167-1.029-0.149-2.071,0.055-3.104c0.024-0.123,0.123-0.167,0.238-0.132
					c1.67,0.505,3.071,1.853,4.124,3.201c1.136,1.456,1.912,3.119,2.294,4.946c0.09,0.745,0.083,1.505-0.038,2.248
					C241.917,115.45,241.347,115.345,240.803,115.137z"/>
				<path style="fill:#49A199;" d="M239.204,120.341c-0.811-0.31-1.525-0.806-2.16-1.395c-0.169-0.182-0.333-0.368-0.493-0.551
					c-1.187-1.363-2.033-3.077-2.328-4.894c-0.167-1.028-0.149-2.07,0.055-3.104c0.024-0.122,0.123-0.167,0.238-0.133
					c1.67,0.505,3.071,1.853,4.124,3.201c1.136,1.456,1.912,3.119,2.295,4.946c0.09,0.745,0.083,1.505-0.038,2.248
					C240.318,120.654,239.749,120.549,239.204,120.341z"/>
				<path style="fill:#49A199;" d="M238.194,127.878c-0.839-0.335-1.575-0.876-2.229-1.52c-0.174-0.199-0.342-0.402-0.506-0.603
					c-1.22-1.491-2.084-3.372-2.376-5.371c-0.165-1.131-0.138-2.279,0.081-3.418c0.026-0.135,0.129-0.185,0.248-0.148
					c1.727,0.543,3.169,2.016,4.25,3.493c1.166,1.594,1.958,3.419,2.34,5.429c0.087,0.82,0.075,1.657-0.057,2.475
					C239.347,128.214,238.757,128.103,238.194,127.878z"/>
				<path style="fill:#49A199;" d="M266.891,70.48c-3.945,2.469-7.249,5.714-10.026,9.435c-2.868,3.843-5.169,8.09-7.149,12.448
					c-1.934,4.255-3.575,8.64-5.096,13.057c-1.967,5.712-3.435,11.593-4.443,17.549c-0.716,4.233-1.203,8.508-1.457,12.796
					c0.002,0.001,0.005,0.001,0.007,0.001c-0.005-0.001-0.004-0.001-0.007-0.001l0,0c0.005,0,0.006,0.001,0.015,0.002
					c0.119,0.013,0.237,0.018,0.356,0.022c0.097,0.003,0.195,0.008,0.292,0.014c0.028-0.531,0.054-1.062,0.092-1.592
					c0.215-2.991,0.54-5.974,0.978-8.94c0.879-5.949,2.216-11.832,4.044-17.562c1.451-4.548,3.112-9.057,4.992-13.445
					c1.873-4.373,4.027-8.641,6.685-12.593c2.572-3.824,5.684-7.406,9.433-10.12c0.45-0.326,0.915-0.631,1.385-0.927
					C267.118,70.543,267.017,70.401,266.891,70.48z"/>
				<path style="fill:#49A199;" d="M241.812,127.563c1.177,0.123,2.354-0.031,3.494-0.342c0.319-0.113,0.634-0.232,0.943-0.351
					c2.294-0.888,4.396-2.393,5.895-4.351c0.849-1.108,1.482-2.343,1.884-3.679c0.048-0.158-0.044-0.27-0.205-0.299
					c-2.34-0.41-4.884,0.332-7.007,1.284c-2.291,1.028-4.276,2.516-5.888,4.433c-0.577,0.822-1.047,1.718-1.366,2.664
					C240.266,127.262,241.022,127.48,241.812,127.563z"/>
				<path style="fill:#49A199;" d="M243.114,120.672c1.143,0.308,2.329,0.342,3.504,0.215c0.333-0.061,0.663-0.129,0.987-0.198
					c2.405-0.514,4.719-1.669,6.509-3.365c1.013-0.96,1.833-2.079,2.442-3.335c0.072-0.149,0-0.274-0.155-0.327
					c-2.246-0.775-4.875-0.444-7.122,0.161c-2.424,0.653-4.62,1.808-6.514,3.447c-0.7,0.72-1.305,1.531-1.77,2.414
					C241.635,120.131,242.347,120.466,243.114,120.672z"/>
				<path style="fill:#49A199;" d="M244.447,114.061c0.963,0.33,1.976,0.42,2.988,0.367c0.288-0.037,0.573-0.081,0.854-0.126
					c2.083-0.334,4.119-1.239,5.733-2.651c0.913-0.799,1.67-1.749,2.251-2.83c0.069-0.128,0.013-0.243-0.117-0.298
					c-1.884-0.799-4.15-0.639-6.101-0.217c-2.106,0.456-4.041,1.368-5.742,2.723c-0.634,0.603-1.191,1.29-1.632,2.049
					C243.208,113.507,243.801,113.84,244.447,114.061z"/>
				<path style="fill:#49A199;" d="M245.969,109.29c0.996,0.199,2.012,0.153,3.008-0.035c0.281-0.075,0.558-0.157,0.831-0.239
					c2.024-0.609,3.93-1.779,5.355-3.394c0.806-0.914,1.438-1.957,1.88-3.107c0.053-0.136-0.017-0.242-0.153-0.279
					c-1.968-0.541-4.195-0.08-6.077,0.6c-2.032,0.733-3.837,1.896-5.354,3.467c-0.553,0.682-1.021,1.438-1.363,2.249
					C244.671,108.905,245.3,109.156,245.969,109.29z"/>
				<path style="fill:#49A199;" d="M247.773,103.449c0.996,0.199,2.012,0.153,3.008-0.035c0.281-0.075,0.558-0.156,0.831-0.238
					c2.024-0.61,3.93-1.779,5.355-3.394c0.806-0.914,1.438-1.957,1.88-3.107c0.052-0.136-0.017-0.242-0.153-0.279
					c-1.968-0.541-4.195-0.08-6.077,0.6c-2.032,0.733-3.837,1.896-5.354,3.467c-0.553,0.682-1.02,1.438-1.363,2.249
					C246.475,103.064,247.104,103.315,247.773,103.449z"/>
				<path style="fill:#49A199;" d="M250.135,97.597c0.996,0.199,2.012,0.153,3.008-0.035c0.281-0.075,0.559-0.157,0.831-0.238
					c2.024-0.61,3.93-1.779,5.355-3.394c0.806-0.914,1.438-1.957,1.88-3.107c0.052-0.136-0.017-0.242-0.152-0.279
					c-1.968-0.541-4.195-0.08-6.078,0.6c-2.032,0.733-3.837,1.896-5.354,3.467c-0.553,0.682-1.021,1.438-1.363,2.249
					C248.837,97.213,249.466,97.464,250.135,97.597z"/>
				<path style="fill:#49A199;" d="M251.974,93.219c0.996,0.199,2.012,0.153,3.008-0.035c0.281-0.075,0.558-0.157,0.831-0.238
					c2.024-0.61,3.93-1.779,5.355-3.394c0.806-0.914,1.438-1.957,1.88-3.106c0.052-0.136-0.017-0.242-0.152-0.28
					c-1.968-0.541-4.195-0.08-6.078,0.6c-2.032,0.733-3.837,1.896-5.354,3.467c-0.553,0.682-1.02,1.438-1.363,2.249
					C250.676,92.835,251.305,93.086,251.974,93.219z"/>
				<path style="fill:#49A199;" d="M254.255,88.471c0.996,0.199,2.012,0.153,3.008-0.035c0.281-0.075,0.559-0.156,0.831-0.238
					c2.024-0.61,3.93-1.779,5.355-3.394c0.806-0.914,1.438-1.957,1.88-3.107c0.052-0.136-0.017-0.242-0.152-0.28
					c-1.968-0.541-4.195-0.08-6.077,0.6c-2.032,0.733-3.837,1.896-5.354,3.467c-0.553,0.682-1.02,1.438-1.363,2.249
					C252.957,88.087,253.586,88.338,254.255,88.471z"/>
				<path style="fill:#49A199;" d="M262.417,75.398c0.84-0.3,1.583-0.792,2.247-1.38c0.177-0.182,0.349-0.368,0.517-0.551
					c1.247-1.365,2.151-3.093,2.491-4.937c0.193-1.044,0.196-2.104,0.008-3.159c-0.022-0.125-0.123-0.173-0.241-0.139
					c-1.725,0.483-3.192,1.828-4.301,3.181c-1.197,1.46-2.028,3.138-2.458,4.99c-0.107,0.757-0.117,1.53-0.007,2.288
					C261.266,75.696,261.853,75.6,262.417,75.398z"/>
				<path style="fill:#49A199;" d="M261.045,77.623c0.773,0.154,1.562,0.118,2.335-0.027c0.218-0.058,0.433-0.121,0.645-0.185
					c1.571-0.473,3.05-1.381,4.156-2.634c0.626-0.71,1.116-1.519,1.459-2.411c0.041-0.106-0.013-0.188-0.118-0.217
					c-1.527-0.42-3.256-0.062-4.717,0.465c-1.577,0.569-2.978,1.471-4.155,2.69c-0.429,0.529-0.792,1.116-1.058,1.746
					C260.038,77.325,260.526,77.519,261.045,77.623z"/>
				<path style="fill:#49A199;" d="M257.462,83.292c0.996,0.199,2.012,0.153,3.008-0.035c0.281-0.075,0.559-0.156,0.831-0.239
					c2.024-0.609,3.93-1.779,5.355-3.394c0.806-0.914,1.438-1.957,1.88-3.106c0.052-0.136-0.017-0.242-0.153-0.28
					c-1.968-0.541-4.195-0.08-6.077,0.6c-2.032,0.733-3.837,1.896-5.354,3.467c-0.553,0.682-1.02,1.438-1.363,2.249
					C256.164,82.907,256.793,83.158,257.462,83.292z"/>
			</g>
			<g>
				<path style="fill:#49A199;" d="M197.608,63.084c0.553-0.898,0.875-1.903,1.052-2.94c0.028-0.3,0.049-0.6,0.068-0.895
					c0.137-2.19-0.313-4.467-1.371-6.436c-0.599-1.115-1.385-2.106-2.345-2.951c-0.114-0.1-0.242-0.071-0.327,0.048
					c-1.237,1.72-1.592,4.054-1.61,6.131c-0.02,2.242,0.461,4.418,1.441,6.462c0.464,0.785,1.031,1.512,1.697,2.138
					C196.766,64.208,197.237,63.686,197.608,63.084z"/>
				<path style="fill:#49A199;" d="M202.415,70.014c0.553-0.898,0.875-1.903,1.052-2.941c0.028-0.3,0.049-0.6,0.068-0.895
					c0.137-2.19-0.313-4.467-1.371-6.436c-0.599-1.115-1.385-2.106-2.345-2.951c-0.114-0.1-0.242-0.071-0.327,0.048
					c-1.237,1.72-1.591,4.054-1.61,6.131c-0.02,2.242,0.461,4.418,1.442,6.462c0.464,0.785,1.031,1.512,1.697,2.138
					C201.573,71.139,202.044,70.617,202.415,70.014z"/>
				<path style="fill:#49A199;" d="M206.589,76.503c0.721-0.77,1.236-1.691,1.616-2.673c0.087-0.289,0.168-0.578,0.244-0.863
					c0.57-2.119,0.582-4.44-0.063-6.58c-0.365-1.212-0.939-2.339-1.711-3.359c-0.091-0.121-0.223-0.117-0.33-0.018
					c-1.554,1.439-2.366,3.656-2.798,5.688c-0.465,2.193-0.428,4.421,0.127,6.619c0.299,0.861,0.71,1.687,1.238,2.433
					C205.54,77.437,206.105,77.02,206.589,76.503z"/>
				<path style="fill:#49A199;" d="M210.048,83.119c0.846-0.63,1.516-1.445,2.064-2.344c0.137-0.269,0.268-0.539,0.394-0.806
					c0.937-1.984,1.36-4.266,1.105-6.487c-0.144-1.257-0.51-2.469-1.089-3.608c-0.069-0.135-0.199-0.155-0.322-0.077
					c-1.785,1.141-2.977,3.179-3.761,5.103c-0.846,2.076-1.204,4.276-1.048,6.537c0.142,0.901,0.4,1.786,0.787,2.614
					C208.85,83.853,209.481,83.542,210.048,83.119z"/>
				<path style="fill:#49A199;" d="M213.563,91.833c1.011-0.724,1.823-1.647,2.494-2.658c0.169-0.302,0.331-0.605,0.488-0.904
					c1.162-2.223,1.733-4.759,1.508-7.205c-0.127-1.384-0.515-2.711-1.155-3.951c-0.076-0.147-0.227-0.165-0.374-0.074
					c-2.127,1.32-3.59,3.611-4.573,5.763c-1.06,2.322-1.552,4.765-1.444,7.258c0.136,0.991,0.408,1.96,0.835,2.862
					C212.136,92.684,212.885,92.32,213.563,91.833z"/>
				<path style="fill:#49A199;" d="M216.184,99.253c1.017-0.562,1.87-1.352,2.601-2.251c0.19-0.273,0.372-0.549,0.55-0.821
					c1.318-2.026,2.119-4.454,2.172-6.915c0.03-1.393-0.188-2.77-0.651-4.1c-0.055-0.158-0.194-0.199-0.339-0.132
					c-2.118,0.98-3.722,3.026-4.865,5.008c-1.233,2.139-1.951,4.487-2.117,6.978c0.02,1.004,0.17,2.009,0.47,2.97
					C214.768,99.875,215.502,99.63,216.184,99.253z"/>
				<path style="fill:#49A199;" d="M218.901,106.747c1.017-0.562,1.87-1.351,2.601-2.251c0.19-0.273,0.372-0.549,0.55-0.821
					c1.318-2.026,2.119-4.453,2.172-6.915c0.03-1.393-0.188-2.77-0.65-4.1c-0.055-0.158-0.194-0.199-0.34-0.131
					c-2.118,0.979-3.722,3.026-4.865,5.008c-1.233,2.139-1.951,4.487-2.117,6.978c0.02,1.004,0.17,2.009,0.47,2.97
					C217.484,107.369,218.219,107.124,218.901,106.747z"/>
				<path style="fill:#49A199;" d="M220.495,114.921c1.085-0.414,2.04-1.078,2.889-1.866c0.226-0.244,0.445-0.492,0.659-0.737
					c1.587-1.822,2.719-4.115,3.114-6.545c0.224-1.376,0.2-2.769-0.073-4.151c-0.032-0.163-0.164-0.224-0.318-0.177
					c-2.234,0.675-4.107,2.478-5.515,4.282c-1.519,1.947-2.557,4.171-3.069,6.615c-0.12,0.997-0.112,2.013,0.051,3.006
					C219.005,115.339,219.767,115.199,220.495,114.921z"/>
				<path style="fill:#49A199;" d="M222.634,121.88c1.085-0.415,2.04-1.078,2.889-1.867c0.226-0.244,0.445-0.491,0.659-0.737
					c1.587-1.823,2.719-4.115,3.114-6.545c0.223-1.375,0.199-2.769-0.073-4.151c-0.032-0.164-0.164-0.224-0.318-0.177
					c-2.234,0.675-4.107,2.478-5.515,4.282c-1.519,1.947-2.557,4.171-3.069,6.615c-0.12,0.997-0.111,2.013,0.051,3.006
					C221.144,122.299,221.906,122.158,222.634,121.88z"/>
				<path style="fill:#49A199;" d="M223.984,131.961c1.122-0.448,2.107-1.171,2.981-2.033c0.232-0.267,0.458-0.538,0.677-0.806
					c1.631-1.994,2.787-4.51,3.177-7.183c0.221-1.513,0.185-3.048-0.108-4.572c-0.035-0.18-0.172-0.248-0.331-0.198
					c-2.31,0.726-4.239,2.697-5.685,4.672c-1.56,2.132-2.619,4.573-3.13,7.261c-0.116,1.097-0.1,2.216,0.077,3.311
					C222.443,132.41,223.231,132.261,223.984,131.961z"/>
				<path style="fill:#49A199;" d="M222.757,135.983c-0.359-3.545-0.83-7.078-1.424-10.588c-1.348-7.965-3.312-15.831-5.943-23.471
					c-2.035-5.908-4.23-11.773-6.816-17.464c-2.649-5.829-5.726-11.509-9.561-16.649c-3.713-4.976-8.132-9.317-13.409-12.618
					c-0.168-0.105-0.303,0.084-0.134,0.191c0.628,0.396,1.251,0.804,1.852,1.24c5.014,3.63,9.176,8.421,12.616,13.535
					c3.556,5.286,6.436,10.994,8.941,16.843c2.514,5.87,4.735,11.899,6.676,17.983c2.445,7.664,4.233,15.532,5.409,23.489
					c0.363,2.46,0.661,4.929,0.909,7.403C222.163,135.939,222.459,135.975,222.757,135.983z"/>
				<path style="fill:#49A199;" d="M219.146,131.54c-1.575,0.165-3.148-0.041-4.673-0.457c-0.427-0.151-0.848-0.31-1.261-0.47
					c-3.068-1.188-5.88-3.201-7.885-5.819c-1.135-1.482-1.982-3.134-2.52-4.92c-0.064-0.212,0.058-0.362,0.274-0.4
					c3.13-0.549,6.533,0.444,9.371,1.718c3.064,1.375,5.719,3.364,7.874,5.928c0.772,1.099,1.4,2.298,1.827,3.563
					C221.214,131.137,220.203,131.429,219.146,131.54z"/>
				<path style="fill:#49A199;" d="M217.404,122.324c-1.529,0.411-3.115,0.457-4.686,0.287c-0.445-0.082-0.886-0.172-1.319-0.265
					c-3.217-0.688-6.312-2.232-8.705-4.5c-1.355-1.284-2.452-2.781-3.265-4.461c-0.096-0.199,0-0.367,0.207-0.438
					c3.004-1.036,6.521-0.594,9.525,0.215c3.242,0.873,6.179,2.418,8.712,4.61c0.936,0.964,1.745,2.048,2.367,3.229
					C219.383,121.599,218.431,122.047,217.404,122.324z"/>
				<path style="fill:#49A199;" d="M215.621,113.481c-1.288,0.442-2.643,0.562-3.996,0.491c-0.385-0.05-0.767-0.108-1.142-0.168
					c-2.786-0.447-5.509-1.658-7.668-3.546c-1.222-1.068-2.233-2.339-3.011-3.785c-0.092-0.171-0.018-0.324,0.156-0.398
					c2.52-1.069,5.55-0.855,8.16-0.29c2.817,0.61,5.405,1.83,7.679,3.642c0.848,0.806,1.593,1.725,2.183,2.74
					C217.279,112.74,216.486,113.185,215.621,113.481z"/>
				<path style="fill:#49A199;" d="M213.586,107.1c-1.333,0.266-2.691,0.204-4.024-0.047c-0.376-0.101-0.747-0.209-1.111-0.319
					c-2.707-0.815-5.256-2.379-7.162-4.539c-1.079-1.223-1.923-2.617-2.514-4.155c-0.07-0.182,0.023-0.324,0.204-0.374
					c2.632-0.724,5.611-0.106,8.128,0.802c2.717,0.981,5.131,2.536,7.161,4.637c0.74,0.912,1.365,1.923,1.823,3.008
					C215.322,106.586,214.48,106.921,213.586,107.1z"/>
				<path style="fill:#49A199;" d="M211.173,99.287c-1.333,0.266-2.691,0.204-4.024-0.047c-0.376-0.101-0.747-0.209-1.111-0.319
					c-2.707-0.815-5.256-2.379-7.162-4.539c-1.079-1.223-1.923-2.617-2.514-4.155c-0.07-0.182,0.023-0.324,0.204-0.374
					c2.632-0.724,5.611-0.107,8.128,0.802c2.717,0.981,5.131,2.536,7.161,4.637c0.74,0.912,1.365,1.923,1.823,3.008
					C212.909,98.773,212.068,99.109,211.173,99.287z"/>
				<path style="fill:#49A199;" d="M208.014,91.461c-1.333,0.266-2.691,0.204-4.024-0.047c-0.376-0.101-0.747-0.209-1.111-0.319
					c-2.707-0.815-5.256-2.379-7.162-4.539c-1.079-1.223-1.923-2.617-2.514-4.155c-0.07-0.182,0.023-0.324,0.204-0.374
					c2.632-0.724,5.611-0.107,8.128,0.802c2.717,0.981,5.131,2.536,7.161,4.637c0.74,0.912,1.365,1.923,1.823,3.008
					C209.75,90.947,208.908,91.283,208.014,91.461z"/>
				<path style="fill:#49A199;" d="M205.555,85.606c-1.333,0.266-2.691,0.204-4.024-0.047c-0.376-0.101-0.747-0.209-1.111-0.319
					c-2.707-0.815-5.256-2.379-7.162-4.539c-1.078-1.223-1.923-2.617-2.514-4.155c-0.07-0.182,0.023-0.324,0.204-0.374
					c2.632-0.724,5.611-0.107,8.128,0.802c2.717,0.981,5.131,2.536,7.161,4.637c0.74,0.912,1.365,1.923,1.823,3.008
					C207.291,85.092,206.449,85.427,205.555,85.606z"/>
				<path style="fill:#49A199;" d="M202.503,79.256c-1.333,0.266-2.691,0.204-4.024-0.047c-0.375-0.101-0.747-0.209-1.111-0.319
					c-2.707-0.815-5.256-2.379-7.162-4.539c-1.079-1.223-1.923-2.617-2.514-4.155c-0.07-0.182,0.023-0.324,0.204-0.374
					c2.632-0.724,5.61-0.107,8.128,0.802c2.717,0.981,5.131,2.536,7.161,4.637c0.74,0.912,1.365,1.923,1.823,3.008
					C204.239,78.742,203.398,79.077,202.503,79.256z"/>
				<path style="fill:#49A199;" d="M191.588,61.771c-1.123-0.402-2.117-1.059-3.006-1.846c-0.237-0.244-0.467-0.492-0.692-0.737
					c-1.667-1.825-2.877-4.137-3.332-6.603c-0.258-1.396-0.262-2.814-0.01-4.225c0.03-0.167,0.164-0.231,0.323-0.186
					c2.308,0.646,4.269,2.445,5.752,4.255c1.6,1.953,2.712,4.197,3.288,6.675c0.143,1.012,0.156,2.046,0.009,3.06
					C193.126,62.17,192.342,62.041,191.588,61.771z"/>
				<path style="fill:#49A199;" d="M193.422,64.746c-1.034,0.206-2.089,0.158-3.123-0.037c-0.291-0.078-0.58-0.162-0.862-0.247
					c-2.101-0.632-4.079-1.847-5.558-3.523c-0.837-0.949-1.493-2.031-1.951-3.225c-0.054-0.141,0.018-0.251,0.159-0.29
					c2.042-0.562,4.354-0.083,6.308,0.623c2.109,0.761,3.982,1.968,5.557,3.598c0.574,0.708,1.059,1.493,1.414,2.335
					C194.769,64.347,194.116,64.608,193.422,64.746z"/>
				<path style="fill:#49A199;" d="M198.215,72.328c-1.333,0.266-2.691,0.204-4.024-0.047c-0.376-0.101-0.747-0.209-1.111-0.319
					c-2.707-0.815-5.256-2.379-7.162-4.539c-1.078-1.223-1.923-2.617-2.514-4.155c-0.07-0.182,0.023-0.324,0.204-0.374
					c2.632-0.724,5.611-0.107,8.128,0.802c2.717,0.981,5.131,2.536,7.161,4.637c0.74,0.912,1.365,1.923,1.823,3.008
					C199.951,71.814,199.109,72.15,198.215,72.328z"/>
			</g>
		</g>
	</g>
	<g>
		<g>
			<g>
				<path style="fill:#6ABBB7;" d="M44.71,95.94c-1.054-0.015-2.075-0.283-3.045-0.691c-0.268-0.137-0.533-0.28-0.791-0.423
					c-1.922-1.06-3.601-2.662-4.695-4.611c-0.619-1.104-1.033-2.299-1.231-3.562c-0.024-0.15,0.07-0.242,0.216-0.251
					c2.115-0.12,4.275,0.833,6.037,1.933c1.902,1.187,3.481,2.76,4.678,4.685c0.413,0.813,0.722,1.682,0.893,2.579
					C46.111,95.833,45.417,95.951,44.71,95.94z"/>
				<path style="fill:#6ABBB7;" d="M47.977,103.716c-1.055-0.015-2.075-0.284-3.045-0.691c-0.269-0.138-0.533-0.281-0.791-0.423
					c-1.921-1.059-3.601-2.662-4.695-4.611c-0.619-1.103-1.033-2.299-1.231-3.562c-0.023-0.15,0.07-0.242,0.216-0.25
					c2.115-0.12,4.275,0.833,6.037,1.933c1.902,1.187,3.481,2.76,4.678,4.685c0.413,0.813,0.722,1.682,0.893,2.579
					C49.378,103.609,48.685,103.727,47.977,103.716z"/>
				<path style="fill:#6ABBB7;" d="M51.212,110.72c-1.036,0.195-2.09,0.135-3.122-0.071c-0.291-0.081-0.578-0.169-0.86-0.257
					c-2.094-0.656-4.058-1.892-5.518-3.585c-0.826-0.958-1.47-2.048-1.915-3.246c-0.053-0.142,0.021-0.251,0.162-0.288
					c2.049-0.539,4.355-0.034,6.301,0.693c2.1,0.785,3.96,2.012,5.517,3.66c0.566,0.715,1.042,1.504,1.388,2.35
					C52.563,110.337,51.907,110.59,51.212,110.72z"/>
				<path style="fill:#6ABBB7;" d="M54.937,117.191c-0.985,0.375-2.033,0.504-3.085,0.483c-0.3-0.028-0.599-0.064-0.892-0.101
					c-2.177-0.275-4.329-1.143-6.066-2.55c-0.983-0.797-1.809-1.755-2.46-2.856c-0.077-0.13-0.024-0.251,0.108-0.313
					c1.921-0.893,4.28-0.805,6.324-0.435c2.206,0.4,4.254,1.278,6.078,2.625c0.684,0.603,1.293,1.296,1.783,2.067
					C56.199,116.573,55.599,116.939,54.937,117.191z"/>
				<path style="fill:#6ABBB7;" d="M60.403,124.834c-1.154,0.464-2.368,0.654-3.581,0.677c-0.345-0.019-0.688-0.045-1.024-0.074
					c-2.5-0.213-4.946-1.092-6.888-2.595c-1.1-0.85-2.011-1.889-2.714-3.095c-0.083-0.143-0.017-0.28,0.138-0.355
					c2.256-1.086,4.974-1.091,7.317-0.765c2.528,0.352,4.853,1.248,6.899,2.678c0.763,0.646,1.435,1.397,1.967,2.241
					C61.887,124.086,61.178,124.522,60.403,124.834z"/>
				<path style="fill:#6ABBB7;" d="M65.257,131.028c-1.02,0.556-2.144,0.852-3.295,0.987c-0.332,0.014-0.663,0.02-0.988,0.023
					c-2.416,0.025-4.895-0.602-7-1.879c-1.192-0.723-2.236-1.646-3.11-2.75c-0.104-0.131-0.064-0.27,0.071-0.357
					c1.963-1.261,4.551-1.517,6.837-1.416c2.467,0.108,4.833,0.761,7.024,1.959c0.836,0.556,1.604,1.222,2.254,1.99
					C66.542,130.166,65.941,130.654,65.257,131.028z"/>
				<path style="fill:#6ABBB7;" d="M70.121,137.342c-1.02,0.556-2.144,0.852-3.295,0.987c-0.332,0.014-0.663,0.02-0.988,0.023
					c-2.417,0.025-4.895-0.602-7-1.879c-1.191-0.723-2.236-1.646-3.11-2.75c-0.104-0.131-0.064-0.27,0.071-0.357
					c1.963-1.261,4.551-1.517,6.837-1.417c2.467,0.108,4.833,0.762,7.024,1.959c0.836,0.556,1.604,1.222,2.254,1.99
					C71.406,136.481,70.805,136.969,70.121,137.342z"/>
				<path style="fill:#6ABBB7;" d="M76.162,143.075c-0.932,0.693-2.005,1.142-3.126,1.436c-0.327,0.06-0.654,0.112-0.975,0.16
					c-2.39,0.361-4.931,0.086-7.194-0.886c-1.281-0.55-2.444-1.318-3.463-2.29c-0.121-0.115-0.101-0.259,0.021-0.363
					c1.768-1.522,4.295-2.136,6.573-2.355c2.458-0.237,4.892,0.081,7.229,0.961c0.906,0.434,1.758,0.986,2.509,1.657
					C77.315,142.042,76.788,142.609,76.162,143.075z"/>
				<path style="fill:#6ABBB7;" d="M80.886,148.614c-0.932,0.693-2.005,1.143-3.126,1.436c-0.327,0.06-0.654,0.112-0.975,0.16
					c-2.39,0.361-4.932,0.085-7.194-0.886c-1.281-0.55-2.444-1.318-3.463-2.29c-0.121-0.115-0.101-0.259,0.021-0.363
					c1.768-1.522,4.295-2.136,6.573-2.355c2.458-0.237,4.892,0.081,7.229,0.961c0.906,0.434,1.758,0.986,2.509,1.657
					C82.039,147.582,81.512,148.149,80.886,148.614z"/>
				<path style="fill:#6ABBB7;" d="M88.667,155.165c-0.98,0.706-2.119,1.149-3.315,1.424c-0.35,0.053-0.699,0.097-1.044,0.139
					c-2.559,0.306-5.301-0.069-7.766-1.175c-1.395-0.626-2.671-1.48-3.799-2.545c-0.134-0.126-0.117-0.278,0.011-0.386
					c1.853-1.56,4.551-2.129,6.993-2.288c2.636-0.172,5.265,0.245,7.806,1.256c0.988,0.491,1.923,1.105,2.752,1.842
					C89.873,154.105,89.325,154.691,88.667,155.165z"/>
				<path style="fill:#6ABBB7;" d="M44.496,81.576c-0.046,6.225,1.244,12.283,3.449,18.087c2.278,5.995,5.419,11.64,8.915,17.004
					c3.414,5.237,7.184,10.237,11.076,15.125c5.034,6.321,10.617,12.199,16.613,17.613c4.481,4.045,9.194,7.842,14.11,11.351
					c0.244-0.192,0.486-0.388,0.731-0.579c-0.893-0.626-1.782-1.26-2.659-1.911c-3.22-2.39-6.354-4.897-9.386-7.521
					c-6.083-5.263-11.761-10.995-16.915-17.171c-4.091-4.903-7.986-10.013-11.589-15.285c-3.591-5.253-6.86-10.747-9.412-16.584
					c-2.469-5.648-4.277-11.731-4.648-17.91c-0.044-0.741-0.054-1.486-0.052-2.228C44.73,81.365,44.498,81.378,44.496,81.576z"/>
				<path style="fill:#6ABBB7;" d="M90.908,150.856c0.984-1.24,1.656-2.678,2.122-4.188c0.102-0.441,0.194-0.882,0.28-1.316
					c0.645-3.226,0.455-6.679-0.678-9.776c-0.641-1.753-1.58-3.354-2.799-4.767c-0.145-0.168-0.336-0.145-0.484,0.016
					c-2.143,2.346-3.132,5.75-3.581,8.829c-0.484,3.323-0.231,6.631,0.775,9.826c0.513,1.241,1.187,2.415,2.026,3.454
					C89.458,152.385,90.248,151.689,90.908,150.856z"/>
				<path style="fill:#6ABBB7;" d="M84.067,144.44c1.168-1.069,2.058-2.383,2.758-3.8c0.17-0.419,0.33-0.84,0.485-1.255
					c1.146-3.084,1.505-6.523,0.876-9.76c-0.356-1.832-1.03-3.562-2.011-5.149c-0.116-0.188-0.309-0.196-0.48-0.06
					c-2.487,1.978-4.001,5.183-4.931,8.152c-1.004,3.205-1.276,6.511-0.787,9.825c0.311,1.307,0.791,2.572,1.454,3.73
					C82.394,145.72,83.283,145.158,84.067,144.44z"/>
				<path style="fill:#6ABBB7;" d="M77.564,138.19c1.064-0.85,1.893-1.929,2.559-3.108c0.165-0.352,0.321-0.705,0.471-1.053
					c1.118-2.591,1.558-5.538,1.124-8.373c-0.246-1.604-0.774-3.14-1.577-4.572c-0.095-0.17-0.264-0.189-0.419-0.082
					c-2.254,1.552-3.7,4.224-4.625,6.73c-0.997,2.704-1.357,5.542-1.049,8.434c0.225,1.148,0.6,2.27,1.14,3.312
					C76.049,139.19,76.85,138.76,77.564,138.19z"/>
				<path style="fill:#6ABBB7;" d="M73.272,133.047c0.939-0.981,1.617-2.161,2.12-3.42c0.117-0.371,0.224-0.743,0.327-1.109
					c0.765-2.722,0.814-5.712,0.014-8.479c-0.453-1.566-1.176-3.028-2.156-4.352c-0.116-0.157-0.286-0.154-0.425-0.028
					c-2.023,1.832-3.102,4.677-3.686,7.289c-0.631,2.819-0.615,5.691,0.068,8.531c0.373,1.114,0.89,2.184,1.56,3.153
					C71.906,134.236,72.641,133.706,73.272,133.047z"/>
				<path style="fill:#6ABBB7;" d="M67.975,126.818c0.94-0.982,1.617-2.161,2.12-3.42c0.117-0.371,0.224-0.743,0.327-1.109
					c0.765-2.722,0.814-5.712,0.014-8.479c-0.453-1.566-1.176-3.027-2.156-4.352c-0.116-0.157-0.286-0.154-0.425-0.028
					c-2.023,1.832-3.101,4.677-3.686,7.289c-0.631,2.819-0.615,5.691,0.068,8.531c0.372,1.114,0.89,2.184,1.56,3.152
					C66.61,128.007,67.345,127.477,67.975,126.818z"/>
				<path style="fill:#6ABBB7;" d="M63.068,119.952c0.94-0.982,1.617-2.161,2.12-3.42c0.117-0.371,0.224-0.743,0.328-1.109
					c0.765-2.721,0.814-5.712,0.014-8.479c-0.453-1.566-1.176-3.028-2.156-4.352c-0.116-0.157-0.286-0.155-0.425-0.028
					c-2.023,1.832-3.101,4.677-3.686,7.289c-0.631,2.819-0.615,5.69,0.068,8.53c0.373,1.114,0.89,2.184,1.56,3.153
					C61.702,121.14,62.437,120.611,63.068,119.952z"/>
				<path style="fill:#6ABBB7;" d="M59.447,114.734c0.94-0.982,1.617-2.161,2.12-3.42c0.117-0.371,0.224-0.743,0.327-1.109
					c0.765-2.722,0.814-5.712,0.014-8.479c-0.453-1.566-1.176-3.027-2.156-4.352c-0.116-0.157-0.286-0.154-0.425-0.028
					c-2.023,1.832-3.101,4.676-3.686,7.289c-0.631,2.819-0.615,5.691,0.069,8.531c0.373,1.114,0.89,2.184,1.56,3.152
					C58.082,115.923,58.817,115.393,59.447,114.734z"/>
				<path style="fill:#6ABBB7;" d="M55.727,108.751c0.94-0.982,1.617-2.161,2.12-3.42c0.117-0.371,0.224-0.742,0.327-1.109
					c0.765-2.722,0.814-5.712,0.014-8.479c-0.453-1.566-1.176-3.028-2.156-4.352c-0.116-0.157-0.286-0.154-0.425-0.028
					c-2.023,1.832-3.101,4.677-3.686,7.289c-0.631,2.819-0.615,5.69,0.069,8.53c0.372,1.114,0.89,2.184,1.56,3.153
					C54.362,109.94,55.097,109.41,55.727,108.751z"/>
				<path style="fill:#6ABBB7;" d="M46.834,90.156c0.264-1.163,0.243-2.355,0.056-3.527c-0.079-0.331-0.164-0.658-0.251-0.979
					c-0.645-2.387-1.946-4.648-3.782-6.356c-1.039-0.966-2.234-1.731-3.559-2.276c-0.157-0.065-0.283,0.014-0.331,0.172
					c-0.694,2.294-0.228,4.915,0.503,7.137c0.789,2.398,2.086,4.541,3.867,6.356c0.777,0.664,1.643,1.23,2.577,1.65
					C46.344,91.668,46.657,90.937,46.834,90.156z"/>
				<path style="fill:#6ABBB7;" d="M48.36,93.301c0.729-0.762,1.255-1.677,1.645-2.654c0.09-0.288,0.174-0.576,0.254-0.86
					c0.594-2.112,0.632-4.433,0.011-6.581c-0.351-1.215-0.913-2.35-1.673-3.377c-0.09-0.122-0.222-0.12-0.33-0.022
					c-1.57,1.422-2.407,3.63-2.861,5.657c-0.49,2.188-0.477,4.416,0.053,6.62c0.289,0.865,0.691,1.695,1.21,2.447
					C47.3,94.223,47.87,93.812,48.36,93.301z"/>
				<path style="fill:#6ABBB7;" d="M52.184,101.414c0.939-0.982,1.617-2.161,2.12-3.42c0.117-0.371,0.224-0.743,0.327-1.109
					c0.765-2.722,0.814-5.712,0.014-8.479c-0.453-1.566-1.176-3.028-2.156-4.352c-0.116-0.157-0.286-0.155-0.425-0.028
					c-2.023,1.832-3.101,4.677-3.686,7.289c-0.631,2.819-0.615,5.69,0.069,8.531c0.373,1.114,0.89,2.184,1.56,3.152
					C50.819,102.603,51.554,102.073,52.184,101.414z"/>
			</g>
			<g>
				<path style="fill:#49A199;" d="M77.676,98.617c-0.762-0.204-1.453-0.585-2.081-1.058c-0.17-0.149-0.335-0.301-0.496-0.451
					c-1.199-1.12-2.124-2.588-2.561-4.201c-0.247-0.913-0.329-1.856-0.241-2.808c0.011-0.113,0.095-0.163,0.202-0.142
					c1.555,0.299,2.947,1.386,4.024,2.505c1.162,1.208,2.019,2.637,2.535,4.252c0.151,0.665,0.216,1.351,0.176,2.033
					C78.711,98.796,78.187,98.754,77.676,98.617z"/>
				<path style="fill:#49A199;" d="M78.623,104.852c-0.762-0.204-1.453-0.585-2.082-1.058c-0.17-0.149-0.335-0.301-0.496-0.451
					c-1.199-1.119-2.124-2.588-2.561-4.201c-0.247-0.913-0.329-1.856-0.241-2.808c0.01-0.113,0.095-0.163,0.202-0.142
					c1.555,0.299,2.947,1.385,4.023,2.505c1.162,1.208,2.019,2.637,2.535,4.252c0.151,0.665,0.216,1.351,0.176,2.033
					C79.658,105.03,79.134,104.989,78.623,104.852z"/>
				<path style="fill:#49A199;" d="M79.687,110.521c-0.787-0.048-1.54-0.284-2.25-0.623c-0.196-0.112-0.388-0.228-0.576-0.344
					c-1.398-0.859-2.596-2.114-3.345-3.608c-0.424-0.846-0.691-1.753-0.795-2.704c-0.012-0.112,0.061-0.178,0.17-0.179
					c1.584-0.016,3.163,0.772,4.441,1.654c1.379,0.953,2.503,2.183,3.33,3.662c0.28,0.622,0.481,1.281,0.577,1.958
					C80.737,110.49,80.215,110.554,79.687,110.521z"/>
				<path style="fill:#49A199;" d="M81.205,115.893c-0.783,0.092-1.566-0.007-2.325-0.214c-0.212-0.076-0.422-0.156-0.628-0.236
					c-1.528-0.597-2.93-1.62-3.932-2.958c-0.567-0.757-0.991-1.603-1.261-2.52c-0.032-0.109,0.028-0.186,0.135-0.207
					c1.556-0.296,3.25,0.199,4.664,0.841c1.526,0.693,2.85,1.705,3.927,3.014c0.386,0.562,0.7,1.176,0.915,1.825
					C82.233,115.676,81.73,115.832,81.205,115.893z"/>
				<path style="fill:#49A199;" d="M83.77,122.434c-0.921,0.126-1.837,0.041-2.72-0.164c-0.247-0.077-0.49-0.159-0.729-0.241
					c-1.774-0.611-3.386-1.696-4.52-3.141c-0.642-0.817-1.113-1.737-1.401-2.74c-0.034-0.119,0.039-0.206,0.165-0.232
					c1.834-0.375,3.806,0.119,5.444,0.783c1.769,0.717,3.29,1.792,4.512,3.203c0.435,0.608,0.785,1.275,1.016,1.984
					C84.982,122.163,84.389,122.35,83.77,122.434z"/>
				<path style="fill:#49A199;" d="M86.156,127.812c-0.841,0.217-1.71,0.226-2.569,0.113c-0.243-0.051-0.484-0.107-0.72-0.164
					c-1.757-0.424-3.439-1.332-4.731-2.643c-0.732-0.742-1.32-1.602-1.752-2.562c-0.051-0.114,0.003-0.208,0.117-0.246
					c1.654-0.555,3.577-0.267,5.216,0.223c1.769,0.529,3.365,1.436,4.734,2.705c0.505,0.556,0.939,1.179,1.27,1.855
					C87.245,127.422,86.72,127.666,86.156,127.812z"/>
				<path style="fill:#49A199;" d="M88.528,133.279c-0.841,0.217-1.71,0.226-2.569,0.113c-0.243-0.051-0.484-0.107-0.72-0.164
					c-1.757-0.424-3.439-1.332-4.731-2.643c-0.732-0.742-1.32-1.602-1.752-2.562c-0.051-0.114,0.003-0.208,0.117-0.246
					c1.654-0.555,3.576-0.267,5.216,0.223c1.769,0.529,3.365,1.436,4.734,2.705c0.505,0.556,0.939,1.179,1.27,1.855
					C89.618,132.89,89.093,133.134,88.528,133.279z"/>
				<path style="fill:#49A199;" d="M91.859,138.54c-0.802,0.332-1.662,0.462-2.528,0.47c-0.248-0.017-0.494-0.038-0.736-0.062
					c-1.798-0.175-3.591-0.84-5.053-1.958c-0.828-0.633-1.531-1.402-2.092-2.293c-0.066-0.106-0.026-0.206,0.082-0.26
					c1.56-0.78,3.505-0.763,5.196-0.506c1.825,0.278,3.532,0.953,5.065,2.019c0.577,0.48,1.094,1.036,1.516,1.66
					C92.884,138.002,92.398,138.317,91.859,138.54z"/>
				<path style="fill:#49A199;" d="M94.271,143.42c-0.802,0.332-1.662,0.462-2.529,0.47c-0.248-0.017-0.494-0.039-0.736-0.062
					c-1.799-0.175-3.591-0.84-5.053-1.958c-0.828-0.633-1.531-1.402-2.092-2.293c-0.066-0.106-0.026-0.206,0.082-0.26
					c1.56-0.78,3.505-0.763,5.196-0.506c1.826,0.278,3.532,0.953,5.065,2.019c0.577,0.48,1.094,1.036,1.516,1.66
					C95.296,142.882,94.81,143.197,94.271,143.42z"/>
				<path style="fill:#49A199;" d="M98.715,149.591c-0.84,0.333-1.746,0.446-2.664,0.426c-0.263-0.026-0.525-0.057-0.782-0.09
					c-1.911-0.246-3.831-1.02-5.415-2.272c-0.897-0.709-1.666-1.561-2.289-2.54c-0.074-0.116-0.034-0.223,0.078-0.278
					c1.628-0.792,3.688-0.712,5.488-0.381c1.943,0.358,3.772,1.14,5.43,2.338c0.627,0.536,1.192,1.153,1.659,1.839
					C99.783,149.044,99.278,149.368,98.715,149.591z"/>
				<path style="fill:#49A199;" d="M80.147,88.164c-1.172,4.504-1.344,9.132-0.807,13.743c0.555,4.763,1.8,9.43,3.354,13.957
					c1.517,4.421,3.336,8.735,5.265,12.991c2.493,5.503,5.466,10.785,8.824,15.806c2.386,3.568,4.969,7.01,7.73,10.301
					c0.002-0.001,0.004-0.003,0.006-0.004c-0.004,0.003-0.003,0.002-0.006,0.004l0,0c0.004-0.003,0.005-0.003,0.012-0.009
					c0.095-0.072,0.185-0.15,0.274-0.229c0.073-0.065,0.147-0.128,0.221-0.19c-0.344-0.405-0.69-0.809-1.027-1.221
					c-1.898-2.321-3.711-4.712-5.429-7.169c-3.448-4.928-6.516-10.121-9.123-15.542c-2.069-4.302-3.959-8.72-5.607-13.2
					c-1.643-4.465-3.009-9.046-3.791-13.744c-0.757-4.546-0.956-9.287-0.095-13.834c0.103-0.546,0.232-1.087,0.37-1.625
					C80.355,88.054,80.185,88.021,80.147,88.164z"/>
				<path style="fill:#49A199;" d="M101.128,146.878c0.94-0.719,1.69-1.639,2.305-2.648c0.154-0.301,0.301-0.604,0.444-0.903
					c1.057-2.221,1.551-4.759,1.296-7.212c-0.144-1.388-0.532-2.721-1.158-3.968c-0.074-0.148-0.217-0.167-0.354-0.077
					c-1.983,1.309-3.322,3.596-4.21,5.746c-0.959,2.321-1.38,4.765-1.234,7.266c0.145,0.994,0.419,1.967,0.837,2.874
					C99.797,147.72,100.496,147.36,101.128,146.878z"/>
				<path style="fill:#49A199;" d="M97.341,140.975c1.042-0.561,1.928-1.352,2.694-2.251c0.2-0.273,0.393-0.549,0.581-0.821
					c1.395-2.026,2.283-4.454,2.419-6.916c0.077-1.393-0.096-2.77-0.516-4.101c-0.05-0.158-0.188-0.199-0.337-0.132
					c-2.164,0.979-3.848,3.026-5.065,5.008c-1.314,2.14-2.116,4.487-2.367,6.979c-0.014,1.004,0.103,2.009,0.372,2.97
					C95.894,141.597,96.641,141.352,97.341,140.975z"/>
				<path style="fill:#49A199;" d="M93.769,135.255c0.927-0.422,1.725-1.052,2.423-1.786c0.184-0.225,0.361-0.452,0.534-0.678
					c1.284-1.674,2.142-3.73,2.346-5.864c0.115-1.208,0.013-2.418-0.307-3.603c-0.038-0.14-0.157-0.185-0.289-0.136
					c-1.918,0.713-3.455,2.386-4.583,4.034c-1.218,1.778-1.997,3.77-2.302,5.923c-0.047,0.873,0.02,1.755,0.221,2.609
					C92.488,135.703,93.147,135.538,93.769,135.255z"/>
				<path style="fill:#49A199;" d="M91.598,130.741c0.861-0.54,1.567-1.271,2.162-2.092c0.152-0.247,0.298-0.497,0.44-0.744
					c1.052-1.833,1.634-3.992,1.56-6.145c-0.042-1.218-0.299-2.41-0.767-3.549c-0.056-0.135-0.179-0.164-0.303-0.098
					c-1.802,0.958-3.104,2.823-4.005,4.61c-0.973,1.928-1.486,4.013-1.51,6.197c0.066,0.876,0.246,1.746,0.554,2.571
					C90.39,131.353,91.02,131.104,91.598,130.741z"/>
				<path style="fill:#49A199;" d="M88.897,125.257c0.861-0.54,1.568-1.271,2.162-2.092c0.152-0.248,0.299-0.497,0.44-0.744
					c1.053-1.833,1.634-3.992,1.561-6.145c-0.042-1.218-0.299-2.41-0.768-3.549c-0.055-0.135-0.179-0.164-0.303-0.098
					c-1.802,0.958-3.104,2.823-4.005,4.61c-0.973,1.929-1.486,4.013-1.51,6.197c0.066,0.876,0.246,1.746,0.555,2.571
					C87.69,125.869,88.319,125.619,88.897,125.257z"/>
				<path style="fill:#49A199;" d="M86.594,119.382c0.861-0.54,1.567-1.271,2.162-2.092c0.152-0.248,0.299-0.497,0.44-0.744
					c1.052-1.833,1.634-3.992,1.561-6.145c-0.042-1.218-0.299-2.41-0.767-3.549c-0.056-0.135-0.179-0.164-0.303-0.098
					c-1.802,0.958-3.104,2.823-4.005,4.61c-0.973,1.929-1.486,4.013-1.51,6.197c0.066,0.876,0.246,1.746,0.554,2.571
					C85.387,119.994,86.017,119.744,86.594,119.382z"/>
				<path style="fill:#49A199;" d="M84.924,114.937c0.861-0.54,1.567-1.271,2.162-2.092c0.152-0.248,0.299-0.497,0.44-0.744
					c1.052-1.833,1.634-3.992,1.561-6.145c-0.042-1.218-0.299-2.41-0.767-3.549c-0.055-0.135-0.179-0.164-0.303-0.098
					c-1.802,0.958-3.104,2.823-4.005,4.61c-0.973,1.929-1.486,4.013-1.51,6.197c0.066,0.876,0.246,1.746,0.554,2.571
					C83.716,115.549,84.346,115.299,84.924,114.937z"/>
				<path style="fill:#49A199;" d="M83.321,109.919c0.861-0.54,1.567-1.271,2.162-2.092c0.152-0.248,0.298-0.497,0.44-0.744
					c1.052-1.833,1.634-3.992,1.56-6.145c-0.042-1.218-0.299-2.41-0.768-3.549c-0.055-0.135-0.179-0.164-0.303-0.098
					c-1.802,0.958-3.104,2.823-4.005,4.61c-0.973,1.928-1.486,4.013-1.51,6.197c0.066,0.876,0.246,1.746,0.554,2.571
					C82.114,110.531,82.743,110.282,83.321,109.919z"/>
				<path style="fill:#49A199;" d="M80.273,94.812c0.404-0.795,0.607-1.663,0.686-2.547c0.003-0.254,0.001-0.507-0.003-0.756
					c-0.031-1.848-0.561-3.725-1.58-5.299c-0.577-0.891-1.303-1.664-2.164-2.301c-0.102-0.076-0.208-0.041-0.271,0.065
					C76.018,85.51,75.877,87.495,76,89.24c0.133,1.883,0.682,3.673,1.641,5.315c0.442,0.624,0.966,1.192,1.566,1.667
					C79.642,95.819,80.002,95.346,80.273,94.812z"/>
				<path style="fill:#49A199;" d="M80.804,97.371c0.668-0.419,1.216-0.986,1.678-1.624c0.118-0.192,0.232-0.386,0.342-0.577
					c0.817-1.423,1.268-3.098,1.211-4.769c-0.033-0.945-0.232-1.87-0.596-2.755c-0.043-0.105-0.139-0.127-0.235-0.076
					c-1.399,0.744-2.409,2.191-3.108,3.578c-0.755,1.497-1.153,3.115-1.172,4.81c0.051,0.68,0.191,1.355,0.43,1.995
					C79.868,97.846,80.356,97.652,80.804,97.371z"/>
				<path style="fill:#49A199;" d="M82.094,103.952c0.861-0.54,1.567-1.271,2.162-2.092c0.152-0.247,0.298-0.497,0.44-0.744
					c1.052-1.833,1.634-3.992,1.561-6.145c-0.042-1.218-0.299-2.41-0.768-3.549c-0.056-0.135-0.179-0.164-0.303-0.098
					c-1.802,0.958-3.104,2.824-4.005,4.61c-0.973,1.928-1.486,4.013-1.51,6.197c0.066,0.876,0.246,1.746,0.555,2.571
					C80.886,104.565,81.516,104.315,82.094,103.952z"/>
			</g>
			<g>
				<path style="fill:#49A199;" d="M24.712,130.376c-0.215-1.032-0.671-1.984-1.255-2.859c-0.186-0.238-0.376-0.47-0.565-0.697
					c-1.404-1.686-3.295-3.032-5.417-3.737c-1.201-0.399-2.453-0.579-3.731-0.534c-0.151,0.005-0.224,0.115-0.205,0.259
					c0.282,2.099,1.628,4.039,3.041,5.562c1.525,1.643,3.369,2.895,5.486,3.706c0.876,0.252,1.788,0.391,2.702,0.388
					C24.872,131.772,24.857,131.069,24.712,130.376z"/>
				<path style="fill:#49A199;" d="M32.967,132.111c-0.215-1.032-0.671-1.984-1.255-2.859c-0.186-0.238-0.376-0.47-0.565-0.697
					c-1.404-1.686-3.296-3.032-5.417-3.736c-1.201-0.399-2.453-0.579-3.731-0.534c-0.151,0.005-0.224,0.115-0.205,0.259
					c0.282,2.1,1.628,4.04,3.041,5.562c1.526,1.643,3.369,2.895,5.486,3.706c0.876,0.251,1.788,0.391,2.702,0.388
					C33.127,133.507,33.111,132.804,32.967,132.111z"/>
				<path style="fill:#49A199;" d="M40.457,133.96c-0.005-1.055-0.263-2.078-0.661-3.052c-0.135-0.27-0.275-0.536-0.415-0.795
					c-1.041-1.932-2.626-3.627-4.565-4.74c-1.097-0.63-2.289-1.055-3.55-1.266c-0.149-0.025-0.243,0.068-0.252,0.213
					c-0.141,2.114,0.792,4.283,1.874,6.056c1.168,1.913,2.726,3.507,4.639,4.724c0.809,0.421,1.674,0.739,2.571,0.918
					C40.336,135.36,40.46,134.668,40.457,133.96z"/>
				<path style="fill:#49A199;" d="M47.515,136.393c0.182-1.039,0.109-2.092-0.11-3.121c-0.085-0.289-0.176-0.576-0.268-0.856
					c-0.682-2.086-1.942-4.035-3.653-5.474c-0.968-0.814-2.066-1.444-3.27-1.875c-0.143-0.051-0.251,0.024-0.286,0.165
					c-0.513,2.055,0.02,4.355,0.771,6.292c0.811,2.09,2.061,3.935,3.728,5.471c0.721,0.557,1.517,1.024,2.367,1.359
					C47.148,137.749,47.393,137.09,47.515,136.393z"/>
				<path style="fill:#49A199;" d="M56.055,140.312c0.237-1.221,0.193-2.449-0.014-3.645c-0.084-0.335-0.175-0.667-0.266-0.992
					c-0.682-2.415-2.009-4.65-3.853-6.272c-1.043-0.919-2.236-1.617-3.553-2.078c-0.156-0.055-0.278,0.037-0.322,0.203
					c-0.639,2.421-0.129,5.091,0.635,7.329c0.824,2.415,2.145,4.529,3.936,6.267c0.779,0.627,1.643,1.144,2.573,1.507
					C55.602,141.911,55.896,141.132,56.055,140.312z"/>
				<path style="fill:#49A199;" d="M63.057,143.904c0.353-1.107,0.431-2.267,0.345-3.422c-0.05-0.329-0.106-0.655-0.165-0.975
					c-0.434-2.378-1.519-4.693-3.171-6.518c-0.936-1.033-2.039-1.884-3.289-2.533c-0.148-0.077-0.278-0.011-0.337,0.138
					c-0.866,2.167-0.627,4.756-0.096,6.982c0.573,2.402,1.663,4.601,3.254,6.526c0.704,0.716,1.503,1.343,2.381,1.836
					C62.454,145.33,62.82,144.647,63.057,143.904z"/>
				<path style="fill:#49A199;" d="M70.178,147.485c0.353-1.107,0.431-2.267,0.345-3.423c-0.05-0.329-0.106-0.654-0.165-0.974
					c-0.434-2.378-1.519-4.693-3.171-6.518c-0.935-1.033-2.039-1.884-3.289-2.533c-0.148-0.077-0.277-0.011-0.337,0.138
					c-0.866,2.166-0.627,4.756-0.096,6.981c0.573,2.402,1.663,4.601,3.254,6.526c0.704,0.716,1.503,1.343,2.381,1.836
					C69.576,148.91,69.941,148.227,70.178,147.485z"/>
				<path style="fill:#49A199;" d="M76.951,152.331c0.504-1.047,0.742-2.185,0.818-3.341c-0.003-0.333-0.014-0.663-0.027-0.988
					c-0.098-2.415-0.85-4.858-2.232-6.896c-0.783-1.153-1.757-2.15-2.904-2.966c-0.136-0.097-0.273-0.05-0.353,0.089
					c-1.16,2.025-1.283,4.622-1.067,6.9c0.233,2.458,1.006,4.788,2.313,6.916c0.598,0.807,1.301,1.54,2.102,2.15
					C76.156,153.658,76.613,153.033,76.951,152.331z"/>
				<path style="fill:#49A199;" d="M83.285,155.92c0.504-1.047,0.742-2.185,0.818-3.341c-0.004-0.332-0.014-0.663-0.027-0.988
					c-0.098-2.415-0.85-4.858-2.233-6.896c-0.782-1.153-1.757-2.15-2.904-2.967c-0.136-0.097-0.273-0.05-0.353,0.089
					c-1.16,2.025-1.283,4.622-1.067,6.9c0.233,2.459,1.006,4.788,2.313,6.916c0.598,0.807,1.301,1.539,2.102,2.15
					C82.49,157.247,82.947,156.622,83.285,155.92z"/>
				<path style="fill:#49A199;" d="M91.191,162.319c0.508-1.096,0.727-2.298,0.771-3.525c-0.014-0.353-0.037-0.705-0.062-1.051
					c-0.184-2.57-1.072-5.192-2.625-7.403c-0.879-1.251-1.959-2.342-3.219-3.248c-0.149-0.107-0.295-0.062-0.377,0.083
					c-1.181,2.115-1.229,4.872-0.923,7.3c0.331,2.621,1.238,5.123,2.712,7.427c0.669,0.877,1.449,1.679,2.33,2.354
					C90.379,163.704,90.85,163.055,91.191,162.319z"/>
				<path style="fill:#49A199;" d="M93.062,166.085c-2.696-2.33-5.465-4.574-8.308-6.717c-6.451-4.863-13.281-9.231-20.441-12.977
					c-5.537-2.896-11.16-5.651-16.949-8.011c-5.928-2.417-12.066-4.432-18.384-5.533c-6.117-1.066-12.31-1.185-18.413,0.039
					c-0.194,0.039-0.162,0.269,0.034,0.231c0.729-0.143,1.462-0.275,2.198-0.371c6.137-0.806,12.453-0.183,18.466,1.172
					c6.215,1.4,12.229,3.57,18.067,6.1c5.859,2.54,11.615,5.396,17.203,8.484c7.041,3.891,13.745,8.381,20.064,13.356
					c1.954,1.538,3.866,3.128,5.746,4.756C92.6,166.461,92.839,166.284,93.062,166.085z"/>
				<path style="fill:#49A199;" d="M87.385,165.336c-1.031,1.202-2.316,2.133-3.71,2.878c-0.414,0.184-0.829,0.357-1.239,0.525
					c-3.046,1.244-6.472,1.712-9.728,1.186c-1.843-0.298-3.593-0.917-5.211-1.846c-0.192-0.11-0.206-0.303-0.075-0.478
					c1.898-2.549,5.053-4.165,7.991-5.189c3.171-1.105,6.467-1.483,9.795-1.1c1.316,0.269,2.596,0.708,3.775,1.335
					C88.611,163.623,88.077,164.529,87.385,165.336z"/>
				<path style="fill:#49A199;" d="M79.789,159.834c-0.829,1.349-1.95,2.472-3.209,3.427c-0.38,0.247-0.762,0.484-1.141,0.714
					c-2.811,1.71-6.12,2.713-9.418,2.708c-1.867-0.003-3.692-0.337-5.437-0.999c-0.207-0.079-0.251-0.267-0.15-0.46
					c1.471-2.816,4.331-4.911,7.071-6.386c2.956-1.592,6.152-2.486,9.498-2.634c1.342,0.058,2.675,0.289,3.938,0.721
					C80.729,157.949,80.346,158.928,79.789,159.834z"/>
				<path style="fill:#49A199;" d="M72.42,154.632c-0.633,1.206-1.535,2.224-2.568,3.101c-0.314,0.228-0.631,0.448-0.945,0.662
					c-2.332,1.589-5.143,2.579-8.008,2.69c-1.622,0.063-3.23-0.166-4.788-0.682c-0.185-0.061-0.235-0.224-0.16-0.396
					c1.097-2.507,3.447-4.433,5.732-5.816c2.466-1.492,5.185-2.382,8.083-2.627c1.169,0.004,2.343,0.16,3.468,0.492
					C73.116,152.955,72.845,153.823,72.42,154.632z"/>
				<path style="fill:#49A199;" d="M66.558,151.392c-0.786,1.108-1.816,1.997-2.957,2.729c-0.342,0.185-0.687,0.361-1.027,0.531
					c-2.528,1.267-5.455,1.881-8.323,1.62c-1.624-0.148-3.195-0.581-4.681-1.293c-0.176-0.084-0.206-0.251-0.108-0.412
					c1.416-2.334,4.004-3.931,6.458-5c2.649-1.154,5.471-1.682,8.389-1.549c1.164,0.155,2.313,0.46,3.391,0.934
					C67.466,149.826,67.085,150.648,66.558,151.392z"/>
				<path style="fill:#49A199;" d="M59.438,147.371c-0.786,1.108-1.816,1.997-2.957,2.729c-0.342,0.185-0.687,0.361-1.027,0.532
					c-2.528,1.267-5.455,1.881-8.323,1.62c-1.624-0.148-3.195-0.581-4.681-1.293c-0.176-0.084-0.206-0.251-0.108-0.412
					c1.416-2.334,4.005-3.931,6.459-5c2.648-1.154,5.471-1.681,8.389-1.548c1.165,0.155,2.313,0.46,3.391,0.934
					C60.347,145.805,59.966,146.627,59.438,147.371z"/>
				<path style="fill:#49A199;" d="M51.766,143.853c-0.786,1.108-1.816,1.997-2.957,2.729c-0.342,0.185-0.687,0.361-1.027,0.532
					c-2.528,1.267-5.454,1.881-8.323,1.62c-1.624-0.148-3.195-0.581-4.681-1.293c-0.176-0.084-0.206-0.251-0.108-0.412
					c1.416-2.334,4.005-3.931,6.459-5c2.648-1.154,5.471-1.682,8.389-1.549c1.164,0.155,2.313,0.461,3.391,0.935
					C52.675,142.287,52.294,143.109,51.766,143.853z"/>
				<path style="fill:#49A199;" d="M45.958,141.286c-0.786,1.109-1.816,1.997-2.957,2.73c-0.342,0.185-0.687,0.361-1.027,0.531
					c-2.527,1.267-5.454,1.881-8.323,1.62c-1.624-0.148-3.195-0.581-4.681-1.293c-0.176-0.084-0.206-0.251-0.108-0.412
					c1.416-2.334,4.004-3.931,6.459-5c2.649-1.153,5.471-1.681,8.389-1.549c1.164,0.155,2.313,0.46,3.391,0.935
					C46.866,139.721,46.485,140.542,45.958,141.286z"/>
				<path style="fill:#49A199;" d="M39.378,138.767c-0.786,1.108-1.816,1.997-2.957,2.729c-0.342,0.185-0.687,0.361-1.027,0.532
					c-2.527,1.267-5.454,1.881-8.323,1.62c-1.624-0.148-3.195-0.581-4.681-1.293c-0.176-0.084-0.206-0.251-0.108-0.412
					c1.416-2.334,4.004-3.931,6.459-5c2.649-1.154,5.471-1.682,8.389-1.549c1.164,0.155,2.313,0.46,3.391,0.934
					C40.287,137.201,39.906,138.023,39.378,138.767z"/>
				<path style="fill:#49A199;" d="M19.435,133.557c-1.092,0.479-2.266,0.684-3.452,0.723c-0.34-0.015-0.677-0.037-1.009-0.061
					c-2.466-0.181-4.932-1.031-6.957-2.51c-1.146-0.837-2.123-1.866-2.909-3.064c-0.093-0.142-0.039-0.28,0.107-0.357
					c2.121-1.116,4.782-1.155,7.103-0.858c2.505,0.32,4.854,1.188,6.974,2.593c0.799,0.637,1.519,1.38,2.108,2.218
					C20.828,132.79,20.168,133.235,19.435,133.557z"/>
				<path style="fill:#49A199;" d="M22.812,134.459c-0.61,0.86-1.409,1.55-2.295,2.118c-0.266,0.143-0.533,0.28-0.797,0.413
					c-1.962,0.983-4.233,1.46-6.459,1.257c-1.26-0.115-2.48-0.451-3.633-1.003c-0.137-0.065-0.16-0.195-0.084-0.32
					c1.099-1.811,3.108-3.051,5.012-3.88c2.056-0.895,4.246-1.305,6.511-1.202c0.904,0.12,1.795,0.357,2.632,0.725
					C23.517,133.244,23.222,133.882,22.812,134.459z"/>
				<path style="fill:#49A199;" d="M31.503,136.678c-0.786,1.109-1.816,1.997-2.957,2.73c-0.342,0.185-0.687,0.361-1.026,0.531
					c-2.528,1.267-5.455,1.881-8.323,1.62c-1.624-0.148-3.196-0.581-4.681-1.293c-0.176-0.084-0.206-0.251-0.109-0.412
					c1.416-2.334,4.005-3.931,6.459-5c2.648-1.154,5.471-1.682,8.389-1.549c1.164,0.155,2.313,0.461,3.391,0.935
					C32.412,135.112,32.031,135.934,31.503,136.678z"/>
			</g>
		</g>
	</g>
	<g>
		<g>
			<g>
				<path style="fill:#49A199;" d="M234.284,152.567c0.024-0.01,0.045-0.025,0.069-0.035c0.814-0.341,1.817-0.673,2.411-1.361
					c0.242-0.28,0.371-0.639,0.205-0.991c-0.136-0.288-0.398-0.451-0.712-0.478c-0.421-0.035-0.855,0.11-1.262,0.312
					c0.008-0.028,0.015-0.056,0.023-0.084c0.258-0.898,0.532-1.789,0.813-2.678c0.722-0.598,1.52-1.094,2.385-1.431
					c0.752-0.293,1.513-0.563,2.25-0.895c0.647-0.292,1.436-0.64,1.858-1.242c0.334-0.477,0.164-1.095-0.215-1.501
					c-0.371-0.398-0.923-0.449-1.432-0.355c-0.66,0.122-1.284,0.46-1.851,0.807c-0.667,0.408-1.293,0.881-1.899,1.374
					c0.338-0.94,0.686-1.877,1.059-2.805c0.581-0.624,1.222-1.198,1.955-1.696c1.035-0.704,2.171-1.242,3.33-1.708
					c0.508-0.204,1.018-0.415,1.541-0.579c0.438-0.138,0.882-0.258,1.311-0.424c0.793-0.306,1.479-0.749,1.718-1.61
					c0.15-0.54-0.058-1.032-0.579-1.254c-0.581-0.248-1.278-0.203-1.891-0.133c-0.635,0.072-1.263,0.199-1.877,0.379
					c-1.043,0.305-2.055,0.759-2.965,1.359c0.421-0.846,0.852-1.687,1.307-2.515c0.87-0.789,1.84-1.474,2.887-2.035
					c1.214-0.65,2.501-1.122,3.831-1.471c0.727-0.191,1.462-0.35,2.197-0.505c0.481-0.101,0.966-0.104,1.454-0.159
					c0.886-0.101,1.834-0.339,2.223-1.23c0.246-0.562,0.053-1.096-0.458-1.419c-0.585-0.369-1.344-0.462-2.018-0.518
					c-0.628-0.052-1.272-0.058-1.898,0.023c-1.417,0.184-2.847,0.502-4.189,1.024c0.672-0.89,1.375-1.756,2.119-2.584
					c1.165-0.727,2.421-1.311,3.778-1.696c0.818-0.232,1.654-0.402,2.497-0.514c0.576-0.076,1.134-0.137,1.712-0.084
					c1.204,0.11,2.399,0.294,3.608,0.359c0.6,0.032,1.207,0.045,1.804-0.024c0.454-0.052,0.944-0.138,1.327-0.405
					c0.663-0.463,0.757-1.511,0.188-2.081c-0.674-0.675-1.835-0.787-2.732-0.858c-1.118-0.088-2.248-0.045-3.365,0.052
					c-1.428,0.124-2.799,0.482-4.137,0.951c3.887-2.848,8.635-4.661,13.492-4.573c2.754,0.05,5.68,0.887,7.644,2.909
					c1.037,1.068,1.752,2.487,2.095,3.93c0.181,0.764,0.229,1.544,0.039,2.312c-0.141,0.57-0.462,1.055-0.731,1.565
					c2.8-0.802,5.815-1.139,8.667-0.461c2.855,0.679,5.597,2.502,6.935,5.17c1.167,2.325,1.214,5.05,0.809,7.57
					c-0.047,0.289-0.101,0.577-0.16,0.865c-0.439,1.401-1.024,2.753-1.725,4.043c0.111-2.834-0.825-5.678-2.972-7.61
					c-0.992-0.893-2.105-1.698-3.311-2.275c-0.978-0.469-2.242-0.917-3.296-0.419c-0.41,0.194-0.844,0.58-0.919,1.049
					c-0.075,0.467,0.235,0.878,0.563,1.172c0.846,0.76,1.943,1.151,2.923,1.698c0.539,0.301,1.021,0.79,1.454,1.265
					c0.528,0.578,0.979,1.223,1.343,1.916c0.709,1.346,1.065,2.859,1.097,4.376c0.029,1.357-0.206,2.702-0.638,3.982
					c-0.933,0.988-1.95,1.899-3.021,2.741c0.392-1.379,0.431-2.905,0.309-4.223c-0.223-2.417-1.009-5.014-2.699-6.822
					c-0.763-0.817-1.741-1.419-2.857-1.592c-0.448-0.07-1.013-0.098-1.335,0.285c-0.287,0.342-0.206,0.84-0.082,1.231
					c0.367,1.15,1.179,2.1,1.718,3.166c0.73,1.444,1.167,3.043,1.256,4.66c0.137,2.503-0.601,4.957-2.122,6.879
					c-0.462,0.217-0.929,0.422-1.4,0.615c-1.363,0.559-2.765,0.993-4.193,1.325c0.741-0.891,1.271-1.951,1.635-3.055
					c0.386-1.173,0.636-2.418,0.619-3.655c-0.012-0.892-0.071-1.789-0.236-2.667c-0.144-0.762-0.379-1.685-1.019-2.189
					c-0.57-0.449-1.459-0.371-1.912,0.21c-0.55,0.705-0.553,1.796-0.563,2.646c-0.012,0.987,0.097,1.98,0.044,2.966
					c-0.03,0.544-0.22,1.09-0.4,1.6c-0.226,0.643-0.518,1.262-0.868,1.847c-0.756,1.265-1.785,2.312-2.985,3.107
					c-1.427,0.089-2.859,0.098-4.286,0.054c1.223-1.336,2.074-3.044,2.631-4.732c0.207-0.628,0.322-1.282,0.362-1.943
					c0.035-0.585,0.039-1.363-0.393-1.821c-0.453-0.48-1.237-0.313-1.689,0.083c-0.602,0.528-0.888,1.417-1.135,2.15
					c-0.277,0.818-0.47,1.668-0.784,2.474c-0.172,0.441-0.471,0.832-0.76,1.203c-0.356,0.457-0.752,0.884-1.177,1.277
					c-0.405,0.374-0.838,0.711-1.291,1.016c-1.488-0.16-2.966-0.386-4.443-0.627c0.187-0.18,0.373-0.362,0.552-0.549
					c0.667-0.697,1.23-1.464,1.697-2.309c0.287-0.521,0.551-1.061,0.748-1.623c0.157-0.45,0.351-1.078,0.092-1.528
					c-0.26-0.451-0.877-0.452-1.289-0.229c-0.548,0.296-0.917,0.9-1.218,1.423c-0.34,0.59-0.613,1.213-0.936,1.811
					c-0.371,0.689-0.947,1.275-1.531,1.787c-0.313,0.274-0.649,0.52-0.997,0.744c-1.154-0.188-2.311-0.363-3.47-0.509
					c0.952-0.828,1.884-1.932,1.922-3.241c0.004-0.14-0.133-0.283-0.277-0.27c-1.712,0.144-2.864,1.71-4.153,2.67
					c-0.262,0.195-0.533,0.37-0.808,0.536c-3.478-0.183-7.355,0.083-10.339,1.979c0.012-0.097,0.026-0.19,0.041-0.273
					c0.181-1.016,0.55-1.999,0.897-2.967C233.998,153.524,234.144,153.046,234.284,152.567z"/>
			</g>
			<g>
				<path style="fill:#6ABBB7;" d="M320.237,172.117c-0.02-0.027-0.035-0.057-0.056-0.084c-0.708-0.914-1.637-1.939-1.87-3.107
					c-0.095-0.476-0.011-0.967,0.406-1.262c0.341-0.241,0.745-0.257,1.12-0.085c0.502,0.231,0.903,0.677,1.237,1.17
					c0.009-0.037,0.019-0.074,0.027-0.111c0.285-1.19,0.549-2.383,0.801-3.577c-0.437-1.148-1.027-2.228-1.796-3.17
					c-0.669-0.819-1.361-1.618-1.987-2.471c-0.55-0.75-1.224-1.656-1.316-2.615c-0.073-0.759,0.52-1.354,1.213-1.572
					c0.68-0.214,1.342,0.084,1.861,0.519c0.673,0.565,1.167,1.353,1.59,2.113c0.497,0.895,0.906,1.838,1.279,2.791
					c0.222-1.29,0.429-2.582,0.602-3.881c-0.259-1.086-0.621-2.154-1.135-3.194c-0.727-1.47-1.674-2.817-2.694-4.096
					c-0.447-0.56-0.894-1.129-1.383-1.654c-0.411-0.44-0.838-0.863-1.22-1.329c-0.706-0.861-1.203-1.807-0.92-2.944
					c0.177-0.713,0.732-1.139,1.469-1.057c0.822,0.092,1.587,0.593,2.241,1.067c0.678,0.492,1.311,1.043,1.895,1.643
					c0.992,1.021,1.854,2.191,2.504,3.462c0.066-1.236,0.116-2.473,0.132-3.71c-0.483-1.461-1.146-2.867-1.979-4.182
					c-0.965-1.524-2.127-2.892-3.419-4.148c-0.706-0.686-1.441-1.342-2.179-1.993c-0.483-0.426-1.035-0.741-1.555-1.119
					c-0.945-0.686-1.872-1.569-1.742-2.836c0.083-0.8,0.647-1.284,1.438-1.322c0.905-0.044,1.83,0.341,2.634,0.712
					c0.749,0.346,1.488,0.754,2.149,1.251c1.496,1.124,2.922,2.409,4.115,3.87c-0.193-1.448-0.435-2.889-0.748-4.313
					c-0.859-1.581-1.914-3.056-3.213-4.371c-0.783-0.792-1.626-1.526-2.515-2.197c-0.607-0.458-1.204-0.887-1.897-1.2
					c-1.444-0.651-2.925-1.213-4.345-1.919c-0.704-0.35-1.405-0.727-2.042-1.192c-0.484-0.353-0.987-0.766-1.251-1.318
					c-0.457-0.956,0.112-2.212,1.129-2.494c1.204-0.335,2.6,0.286,3.668,0.784c1.332,0.621,2.592,1.4,3.801,2.231
					c1.548,1.063,2.88,2.355,4.103,3.753c-2.594-5.755-6.837-10.885-12.431-13.917c-3.172-1.72-7.048-2.653-10.591-1.615
					c-1.872,0.548-3.602,1.704-4.924,3.129c-0.7,0.754-1.257,1.613-1.536,2.61c-0.207,0.741-0.154,1.501-0.177,2.256
					c-2.674-2.721-5.894-5.05-9.583-6.117c-3.693-1.068-7.995-0.758-11.242,1.419c-2.83,1.898-4.642,4.974-5.806,8.108
					c-0.133,0.36-0.257,0.724-0.376,1.09c-0.403,1.88-0.609,3.798-0.642,5.722c1.701-3.303,4.603-5.94,8.297-6.758
					c1.706-0.378,3.495-0.578,5.242-0.458c1.418,0.097,3.148,0.401,4.027,1.649c0.342,0.486,0.587,1.206,0.371,1.788
					c-0.216,0.58-0.834,0.849-1.398,0.973c-1.455,0.32-2.958,0.058-4.428,0.05c-0.809-0.004-1.673,0.243-2.473,0.504
					c-0.975,0.318-1.904,0.763-2.767,1.318c-1.676,1.077-3.059,2.572-4.074,4.282c-0.909,1.528-1.509,3.213-1.841,4.951
					c0.426,1.729,0.998,3.423,1.675,5.074c0.443-1.824,1.383-3.59,2.372-5.014c1.813-2.611,4.385-5.065,7.478-6.035
					c1.397-0.439,2.901-0.494,4.284,0.027c0.556,0.21,1.218,0.541,1.338,1.186c0.107,0.575-0.307,1.09-0.701,1.455
					c-1.16,1.074-2.699,1.633-4.001,2.5c-1.764,1.175-3.294,2.717-4.438,4.502c-1.771,2.765-2.514,6.039-2.019,9.211
					c0.387,0.545,0.786,1.081,1.199,1.605c1.193,1.516,2.512,2.916,3.925,4.215c-0.27-1.494-0.191-3.044,0.108-4.538
					c0.317-1.586,0.835-3.167,1.652-4.566c0.589-1.009,1.235-1.994,1.99-2.888c0.656-0.776,1.518-1.676,2.574-1.837
					c0.94-0.144,1.903,0.519,2.044,1.472c0.172,1.159-0.529,2.405-1.065,3.38c-0.623,1.133-1.388,2.194-1.963,3.353
					c-0.317,0.639-0.452,1.386-0.577,2.082c-0.157,0.879-0.224,1.773-0.203,2.666c0.045,1.929,0.543,3.787,1.399,5.468
					c1.569,1.022,3.196,1.956,4.852,2.826c-0.533-2.312-0.401-4.808,0.054-7.092c0.169-0.85,0.46-1.67,0.841-2.448
					c0.338-0.69,0.834-1.579,1.622-1.822c0.827-0.255,1.612,0.441,1.872,1.185c0.346,0.99,0.098,2.188-0.093,3.184
					c-0.213,1.111-0.54,2.205-0.703,3.326c-0.089,0.613,0.001,1.252,0.09,1.861c0.111,0.751,0.286,1.493,0.518,2.216
					c0.22,0.687,0.496,1.351,0.817,1.991c1.799,0.778,3.63,1.474,5.469,2.152c-0.097-0.326-0.191-0.653-0.275-0.983
					c-0.311-1.226-0.458-2.463-0.445-3.727c0.008-0.779,0.056-1.565,0.195-2.333c0.111-0.615,0.295-1.456,0.881-1.801
					c0.587-0.346,1.291,0.05,1.618,0.57c0.434,0.691,0.465,1.618,0.471,2.409c0.007,0.891-0.084,1.778-0.102,2.669
					c-0.021,1.025,0.257,2.065,0.593,3.025c0.18,0.514,0.404,1.011,0.656,1.491c1.437,0.53,2.868,1.077,4.285,1.659
					c-0.551-1.558-0.902-3.418-0.1-4.935c0.085-0.162,0.335-0.236,0.49-0.13c1.859,1.268,2.162,3.797,3.012,5.723
					c0.173,0.391,0.368,0.766,0.575,1.131c4.082,2.036,8.331,4.839,10.51,8.926c0.049-0.118,0.093-0.234,0.13-0.338
					c0.449-1.275,0.663-2.633,0.892-3.961C319.945,173.393,320.087,172.755,320.237,172.117z"/>
			</g>
			<g>
				<path style="fill:#49A199;" d="M257.716,129.35c0.022-0.014,0.04-0.031,0.063-0.045c0.75-0.464,1.69-0.949,2.169-1.722
					c0.195-0.315,0.266-0.688,0.047-1.011c-0.179-0.263-0.464-0.383-0.778-0.36c-0.421,0.031-0.827,0.242-1.197,0.506
					c0.004-0.029,0.006-0.058,0.01-0.087c0.115-0.927,0.245-1.85,0.384-2.772c0.62-0.704,1.33-1.319,2.132-1.786
					c0.697-0.407,1.406-0.793,2.082-1.236c0.594-0.389,1.318-0.857,1.641-1.518c0.255-0.523-0.01-1.107-0.447-1.448
					c-0.429-0.335-0.982-0.299-1.47-0.126c-0.633,0.224-1.196,0.655-1.702,1.086c-0.595,0.507-1.139,1.072-1.661,1.654
					c0.186-0.981,0.384-1.961,0.607-2.936c0.476-0.707,1.02-1.374,1.666-1.98c0.912-0.857,1.95-1.567,3.022-2.208
					c0.47-0.281,0.941-0.569,1.431-0.813c0.411-0.205,0.83-0.393,1.228-0.624c0.735-0.427,1.343-0.971,1.445-1.859
					c0.064-0.557-0.219-1.01-0.768-1.149c-0.612-0.153-1.294,0-1.888,0.164c-0.616,0.17-1.217,0.395-1.795,0.668
					c-0.982,0.465-1.911,1.071-2.716,1.806c0.284-0.901,0.578-1.799,0.898-2.688c0.736-0.915,1.586-1.743,2.533-2.461
					c1.098-0.832,2.294-1.499,3.554-2.052c0.688-0.302,1.389-0.574,2.091-0.842c0.459-0.175,0.938-0.253,1.411-0.385
					c0.859-0.238,1.758-0.621,2.004-1.562c0.155-0.594-0.119-1.091-0.674-1.33c-0.635-0.273-1.4-0.246-2.074-0.196
					c-0.628,0.047-1.266,0.142-1.871,0.32c-1.371,0.404-2.733,0.941-3.978,1.667c0.525-0.984,1.083-1.949,1.688-2.884
					c1.037-0.9,2.186-1.674,3.466-2.266c0.771-0.357,1.571-0.656,2.386-0.898c0.557-0.166,1.098-0.312,1.678-0.351
					c1.207-0.08,2.416-0.085,3.62-0.21c0.598-0.062,1.199-0.144,1.779-0.306c0.44-0.123,0.911-0.284,1.247-0.608
					c0.582-0.561,0.511-1.611-0.14-2.085c-0.772-0.561-1.936-0.49-2.833-0.42c-1.118,0.088-2.228,0.308-3.315,0.578
					c-1.391,0.346-2.689,0.913-3.938,1.586c3.394-3.421,7.8-5.955,12.611-6.627c2.728-0.381,5.749-0.012,8.005,1.678
					c1.192,0.893,2.12,2.182,2.684,3.554c0.299,0.726,0.467,1.489,0.4,2.277c-0.05,0.585-0.291,1.115-0.477,1.661
					c2.639-1.231,5.565-2.035,8.488-1.811c2.927,0.224,5.919,1.596,7.659,4.022c1.516,2.114,1.989,4.798,1.983,7.35
					c-0.001,0.293-0.01,0.586-0.022,0.88c-0.215,1.452-0.581,2.879-1.071,4.263c-0.333-2.817-1.702-5.479-4.126-7.052
					c-1.119-0.726-2.345-1.348-3.626-1.729c-1.04-0.31-2.358-0.555-3.321,0.102c-0.375,0.256-0.743,0.705-0.743,1.179
					c-0.001,0.473,0.37,0.83,0.74,1.069c0.955,0.618,2.1,0.833,3.153,1.22c0.579,0.213,1.132,0.621,1.634,1.021
					c0.612,0.489,1.158,1.055,1.626,1.682c0.91,1.219,1.499,2.657,1.768,4.151c0.241,1.336,0.22,2.701-0.008,4.033
					c-0.767,1.123-1.629,2.181-2.555,3.18c0.172-1.423-0.029-2.937-0.355-4.219c-0.598-2.352-1.781-4.795-3.733-6.316
					c-0.882-0.687-1.942-1.129-3.071-1.126c-0.454,0.001-1.016,0.061-1.274,0.49c-0.23,0.383-0.072,0.862,0.112,1.228
					c0.542,1.078,1.493,1.89,2.192,2.858c0.947,1.312,1.629,2.823,1.969,4.406c0.527,2.451,0.182,4.99-1.02,7.127
					c-0.423,0.286-0.851,0.562-1.286,0.827c-1.259,0.765-2.576,1.414-3.934,1.965c0.593-0.996,0.951-2.126,1.137-3.273
					c0.197-1.219,0.25-2.488,0.04-3.707c-0.151-0.879-0.35-1.756-0.651-2.597c-0.261-0.73-0.637-1.605-1.349-2.002
					c-0.634-0.354-1.499-0.138-1.856,0.506c-0.433,0.783-0.265,1.861-0.142,2.701c0.142,0.977,0.406,1.94,0.507,2.923
					c0.056,0.541-0.047,1.111-0.144,1.643c-0.122,0.671-0.314,1.328-0.568,1.961c-0.549,1.367-1.401,2.563-2.462,3.535
					c-1.395,0.311-2.809,0.544-4.225,0.723c0.999-1.511,1.573-3.331,1.858-5.086c0.106-0.653,0.118-1.317,0.053-1.976
					c-0.057-0.584-0.174-1.352-0.673-1.737c-0.523-0.404-1.271-0.116-1.655,0.346c-0.512,0.615-0.655,1.538-0.785,2.302
					c-0.145,0.851-0.203,1.721-0.387,2.566c-0.1,0.462-0.335,0.895-0.563,1.307c-0.28,0.508-0.604,0.991-0.963,1.446
					c-0.341,0.432-0.716,0.833-1.116,1.205c-1.494,0.075-2.99,0.083-4.486,0.076c0.156-0.207,0.311-0.416,0.46-0.629
					c0.55-0.793,0.986-1.639,1.315-2.546c0.202-0.559,0.378-1.134,0.484-1.72c0.085-0.469,0.178-1.12-0.148-1.524
					c-0.327-0.405-0.936-0.309-1.309-0.025c-0.495,0.378-0.765,1.033-0.981,1.596c-0.243,0.635-0.415,1.294-0.64,1.935
					c-0.259,0.738-0.736,1.408-1.233,2.005c-0.266,0.32-0.56,0.615-0.868,0.891c-1.17-0.005-2.339,0.002-3.507,0.04
					c0.811-0.966,1.559-2.203,1.392-3.502c-0.018-0.139-0.176-0.258-0.316-0.224c-1.668,0.41-2.561,2.137-3.684,3.287
					c-0.228,0.234-0.468,0.449-0.714,0.655c-3.464,0.364-7.251,1.232-9.903,3.572c-0.003-0.098-0.004-0.192-0.002-0.276
					c0.02-1.032,0.23-2.06,0.422-3.071C257.584,130.34,257.653,129.846,257.716,129.35z"/>
			</g>
		</g>
	</g>
	<g>
		<g>
			<path style="fill:#5F6163;" d="M92.2,130.683v1.606c0,0.776-6.094,1.405-13.612,1.405c-7.517,0-13.611-0.629-13.611-1.405v-1.606
				H92.2z"/>
			<g>
				<path style="fill:#7B7C7F;" d="M64.977,130.683c0,0.776,6.094,1.405,13.611,1.405c7.517,0,13.612-0.629,13.612-1.405
					c0-0.776-6.094-1.405-13.612-1.405C71.071,129.278,64.977,129.907,64.977,130.683z"/>
				<g>
					<path style="fill:#7B7C7F;" d="M69.155,106.64c0.79-0.131,1.539,0.402,1.671,1.193l3.613,21.648
						c0.02,0.121,0.02,0.24,0.01,0.358h-2.895l-3.593-21.527C67.829,107.52,68.363,106.771,69.155,106.64z"/>
					<path style="fill:#7B7C7F;" d="M69.017,109.8c-0.322-0.064-0.61-0.2-0.87-0.378l-0.186-1.112
						c-0.132-0.791,0.402-1.539,1.193-1.671c0.79-0.131,1.539,0.402,1.671,1.193l0.176,1.055
						C70.535,109.518,69.843,109.966,69.017,109.8z"/>
					<path style="fill:#7B7C7F;" d="M69.392,109.524c0.482,0,0.952-0.239,1.229-0.676l29.632-46.851
						c0.428-0.678,0.227-1.575-0.451-2.004c-0.678-0.429-1.575-0.227-2.004,0.451l-29.632,46.851
						c-0.428,0.678-0.227,1.575,0.451,2.004C68.858,109.451,69.127,109.524,69.392,109.524z"/>
					<path style="fill:#7B7C7F;" d="M93.231,67.665l4.567-7.22c0.429-0.678,1.325-0.88,2.004-0.451
						c0.678,0.429,0.879,1.326,0.451,2.004l-4.814,7.611C94.724,68.936,93.986,68.29,93.231,67.665z"/>
					<path style="fill:#3E4042;" d="M69.153,108.098c0,0.233,0.189,0.422,0.422,0.422c0.233,0,0.422-0.189,0.422-0.422
						c0-0.233-0.189-0.422-0.422-0.422C69.341,107.676,69.153,107.865,69.153,108.098z"/>
					<g>
						<path style="fill:#7B7C7F;" d="M91.372,64.803c-0.017,0.002-0.036,0.007-0.048,0c-0.305-0.182,1.202-3.267,3.364-6.892
							c2.163-3.625,4.163-6.415,4.468-6.234l0.01-0.017l29.728,10.819l-13.703,22.964L91.372,64.803z"/>
						<path style="fill:#36383A;" d="M115.192,85.443c0.305,0.182,3.619-4.811,7.403-11.153c3.784-6.341,6.604-11.629,6.3-11.811
							c-0.305-0.182-3.619,4.811-7.403,11.153C117.708,79.973,114.888,85.261,115.192,85.443z"/>
					</g>
				</g>
			</g>
		</g>
		<g>
			<path style="fill:#416873;" d="M168.577,68.604c0,0-21.077,4.414-26.742,17.493c-5.112,11.804-14.032,44.645-14.032,44.645
				h20.885c0,0,8.267-35.101,9.79-40.799C160,84.245,168.577,68.604,168.577,68.604z"/>
			<path style="fill:#416873;" d="M201.552,70.594c0,0,17.067,2.424,22.732,15.503c5.112,11.804,14.032,44.645,14.032,44.645
				h-20.885c0,0-8.267-35.101-9.79-40.799C206.119,84.245,201.552,70.594,201.552,70.594z"/>
			<path style="fill:#5F91A0;" d="M209.319,85.818c-0.46-4.22-1.189-9.488-2.293-13.546c-6.94-4.054-19.553-4.971-19.553-4.971
				h-3.256h-3.334h-3.256c0,0-12.036,0.642-19.117,4.62c-1.103,4.058-2.269,9.677-2.729,13.896
				c-0.966,8.865-0.596,17.842,0.339,26.688c0.646,6.112,1.561,12.178,2.513,18.236h22.249h3.334h22.249
				c0.953-6.058,1.867-12.124,2.514-18.236C209.915,103.66,210.285,94.683,209.319,85.818z"/>
			<path style="fill:#EFCAAC;" d="M193.133,69.492c-2.656-1.386-1.423-15.131-1.423-15.131h-17.356c0,0,1.234,13.744-1.423,15.131
				c-2.656,1.387-3.948,1.009-2.65,5.195c1.056,3.404,5.03,5.083,10.69,5.474c0,0,1.381,0.091,2.061,0.08
				c0.68,0.011,2.061-0.08,2.061-0.08c5.659-0.391,9.633-2.07,10.69-5.474C197.081,70.5,195.789,70.878,193.133,69.492z"/>
			<path style="fill:#EFCAAC;" d="M207.699,40.513c-0.65-0.855-1.77-1.422-2.779-1.626c-2.377-0.481-3.671,2.689-4.302,4.423
				c-1.05,2.888-1.866,5.973-2.368,8.998c-0.075,0.45-0.113,0.987,0.231,1.287c0.228,0.199,0.558,0.224,0.86,0.213
				c4.788-0.176,6.8-6.113,8.369-9.747c0.251-0.582,0.489-1.183,0.532-1.816C208.288,41.584,208.07,41.001,207.699,40.513z"/>
			<path style="fill:#EFCAAC;" d="M158.076,42.246c0.043,0.632,0.281,1.234,0.532,1.816c1.569,3.634,3.581,9.571,8.369,9.747
				c0.303,0.011,0.632-0.014,0.86-0.213c0.344-0.3,0.306-0.837,0.231-1.287c-0.502-3.025-1.317-6.11-2.368-8.998
				c-0.631-1.735-1.925-4.904-4.302-4.423c-1.009,0.204-2.13,0.771-2.78,1.626C158.249,41.001,158.031,41.584,158.076,42.246z"/>
			<path style="fill:#F6DFC9;" d="M204.366,20.687c-1.279-5.387-4.006-10.266-8.854-13.188c-9.255-5.579-25.535-3.171-31.039,6.789
				c-1.11,2.009-2.143,4.19-2.835,6.378c-2.762,8.726,0.105,19.396,2.686,27.863c2.01,6.594,5.624,13.018,12.358,15.647
				c15.485,6.046,24.803-9.76,27.223-22.57C205.184,34.841,205.971,27.445,204.366,20.687z"/>
			<g>
				<g>
					<path style="fill:#1B374F;" d="M197.672,39.469c-1.65-1.647-3.951-2.17-6.091-1.359c-1.858,0.704-3.175,2.36-3.803,4.291
						c0.06-0.036,0.112-0.083,0.141-0.134c0.932-1.657,2.961-2.905,4.739-3.171c1.096-0.164,2.255,0.116,3.277,0.526
						c0.559,0.224,1.116,0.445,1.638,0.757c0.517,0.308,0.982,0.716,1.468,1.076c0.002,0.002,0.005,0.002,0.007,0.003
						C198.714,40.714,198.245,40.041,197.672,39.469z"/>
				</g>
			</g>
			<g>
				<g>
					<path style="fill:#1B374F;" d="M177.114,39.469c-1.65-1.647-3.951-2.17-6.091-1.359c-1.858,0.704-3.176,2.36-3.803,4.291
						c0.06-0.036,0.112-0.083,0.141-0.134c0.932-1.657,2.96-2.905,4.739-3.171c1.096-0.164,2.255,0.116,3.277,0.526
						c0.559,0.224,1.116,0.445,1.638,0.757c0.517,0.308,0.983,0.716,1.468,1.076c0.002,0.002,0.005,0.002,0.007,0.003
						C178.155,40.714,177.686,40.041,177.114,39.469z"/>
				</g>
			</g>
			<g>
				<path style="fill:#492717;" d="M194.112,43.877c0,1.392-0.593,2.52-1.325,2.52c-0.732,0-1.325-1.128-1.325-2.52
					c0-1.392,0.593-2.52,1.325-2.52C193.519,41.357,194.112,42.485,194.112,43.877z"/>
				<path style="fill:#FFFFFF;" d="M193.723,42.89c0,0.272-0.116,0.493-0.26,0.493s-0.26-0.221-0.26-0.493
					c0-0.273,0.116-0.494,0.26-0.494S193.723,42.617,193.723,42.89z"/>
			</g>
			<g>
				<path style="fill:#492717;" d="M174.879,43.877c0,1.392-0.593,2.52-1.325,2.52c-0.732,0-1.325-1.128-1.325-2.52
					c0-1.392,0.593-2.52,1.325-2.52C174.285,41.357,174.879,42.485,174.879,43.877z"/>
				<path style="fill:#FFFFFF;" d="M174.489,42.89c0,0.272-0.116,0.493-0.26,0.493c-0.143,0-0.259-0.221-0.259-0.493
					c0-0.273,0.116-0.494,0.259-0.494C174.373,42.396,174.489,42.617,174.489,42.89z"/>
			</g>
			<path style="fill:#F6DFC9;" d="M184.698,53.003c-0.423,0.352-0.873,0.653-1.393,0.736c-0.089,0.029-0.18,0.049-0.273,0.069
				c-0.092-0.02-0.184-0.04-0.273-0.069c-0.521-0.084-0.97-0.385-1.393-0.736c-0.347-0.199-0.714-0.355-1.085-0.501
				c0.371,0.438,0.628,0.952,1.091,1.313c0.444,0.346,0.983,0.554,1.545,0.556c0.004,0.001,0.008,0.002,0.012,0.002
				c0.035,0.003,0.068-0.003,0.103-0.001c0.035-0.002,0.068,0.005,0.103,0.001c0.004,0,0.008-0.002,0.012-0.002
				c0.561-0.002,1.101-0.21,1.545-0.556c0.463-0.361,0.72-0.874,1.091-1.313C185.412,52.648,185.045,52.804,184.698,53.003z"/>
			<path style="fill:#FFFFFF;" d="M176.867,56.956c0,0,5.921,1.545,11.366,1.773c0,0-1.225,0.774-5.144,0.361
				C179.17,58.678,176.867,56.956,176.867,56.956z"/>
			<g>
				<path style="fill:#EFCAAC;" d="M157.563,130.805c0.145-0.188,0.226-0.416,0.178-0.663c-0.105-0.547-0.781-0.777-1.214-1.008
					c-1.829-0.975-3.514-2.067-5.03-3.488c-0.646-0.605-1.235-1.404-1.968-1.905c-0.76-0.52-1.833-0.56-2.709-0.751
					c-2.149-0.468-4.287-0.928-6.463-1.259c-1.83-0.279-3.765-0.731-5.579-0.152c-1.81,0.578-3.219,1.947-4.528,3.265
					c-1.364,1.374-2.632,2.854-3.301,4.678c-0.04,0.075-0.363,0.689-0.576,1.284H157.563z"/>
				<path style="fill:#D2A27C;" d="M137.887,130.805c0.273-0.512,0.571-1.009,0.908-1.483c0.618-1.57,1.517-3.043,2.697-4.205
					c1.027-1.011,2.298-1.668,3.72-1.919c0.787-0.138,1.612-0.163,2.401-0.028c0.629,0.107,1.166,0.367,1.75,0.606
					c0.03,0.012,0.081-0.027,0.07-0.06c-0.192-0.567-0.943-0.74-1.463-0.859c-0.763-0.175-1.562-0.208-2.338-0.114
					c-1.496,0.183-2.898,0.798-4.035,1.784c-1.841,1.597-3.075,3.911-3.727,6.276H137.887z"/>
				<path style="fill:#D2A27C;" d="M143.871,130.805c0.043-0.054,0.092-0.113,0.13-0.159c0.38-0.469,0.721-0.979,1.148-1.408
					c0.414-0.416,0.844-0.815,1.313-1.169c0.429-0.324,1.111-0.778,1.682-0.666c0.081,0.016,0.204-0.121,0.096-0.153
					c-0.255-0.076-0.488-0.117-0.753-0.067c-0.304,0.058-0.589,0.206-0.854,0.36c-0.556,0.324-1.039,0.759-1.501,1.204
					c-0.425,0.41-0.787,0.857-1.149,1.323c-0.141,0.182-0.292,0.355-0.441,0.531c-0.017,0.068-0.03,0.136-0.046,0.204H143.871z"/>
				<path style="fill:#D2A27C;" d="M129.208,130.805c0.097-0.579,0.224-1.152,0.421-1.706c0.006-0.046,0.01-0.085,0.014-0.106
					c0.201-1.422,0.83-2.81,1.632-3.99c0.993-1.461,2.431-2.791,4.148-3.321c1.949-0.601,3.727,0.146,5.646,0.372
					c-1.439,0.32-2.801,1.149-3.943,2.047c-2.058,1.619-3.814,4.051-4.282,6.703h0.168c0.06-0.161,0.117-0.329,0.173-0.487
					c0.181-0.512,0.387-1.043,0.673-1.518c0.723-1.648,1.911-3.126,3.246-4.23c1.061-0.877,2.311-1.684,3.644-2.066
					c1.428-0.41,3.321-0.231,4.672,0.418c0.048,0.022,0.169-0.044,0.115-0.099c-0.479-0.486-1.16-0.601-1.803-0.747
					c-0.806-0.183-1.61-0.222-2.426-0.075c-0.023,0.004-0.045,0.011-0.068,0.016c0.021-0.028,0.028-0.061-0.006-0.08
					c-1.369-0.771-3.186-1.12-4.746-0.945c-1.557,0.175-2.961,0.994-4.099,2.04c-1.928,1.771-3.131,4.25-3.379,6.846
					c-0.016,0.17-0.07,0.537-0.091,0.928H129.208z"/>
			</g>
			<g>
				<path style="fill:#EFCAAC;" d="M208.557,130.805c-0.145-0.188-0.226-0.416-0.178-0.663c0.105-0.547,0.781-0.777,1.214-1.008
					c1.829-0.975,3.514-2.067,5.03-3.488c0.646-0.605,1.235-1.404,1.968-1.905c0.76-0.52,1.833-0.56,2.709-0.751
					c2.148-0.468,4.287-0.928,6.463-1.259c1.83-0.279,3.765-0.731,5.579-0.152c1.81,0.578,3.219,1.947,4.528,3.265
					c1.364,1.374,2.632,2.854,3.301,4.678c0.04,0.075,0.363,0.689,0.576,1.284H208.557z"/>
				<path style="fill:#D2A27C;" d="M228.232,130.805c-0.273-0.512-0.571-1.009-0.908-1.483c-0.618-1.57-1.517-3.043-2.697-4.205
					c-1.027-1.011-2.298-1.668-3.721-1.919c-0.786-0.138-1.611-0.163-2.401-0.028c-0.629,0.107-1.166,0.367-1.75,0.606
					c-0.029,0.012-0.081-0.027-0.07-0.06c0.192-0.567,0.943-0.74,1.463-0.859c0.763-0.175,1.562-0.208,2.338-0.114
					c1.496,0.183,2.898,0.798,4.035,1.784c1.841,1.597,3.075,3.911,3.727,6.276H228.232z"/>
				<path style="fill:#D2A27C;" d="M222.248,130.805c-0.043-0.054-0.092-0.113-0.13-0.159c-0.38-0.469-0.721-0.979-1.148-1.408
					c-0.414-0.416-0.844-0.815-1.313-1.169c-0.429-0.324-1.111-0.778-1.682-0.666c-0.081,0.016-0.204-0.121-0.095-0.153
					c0.255-0.076,0.488-0.117,0.753-0.067c0.304,0.058,0.589,0.206,0.854,0.36c0.556,0.324,1.039,0.759,1.501,1.204
					c0.425,0.41,0.787,0.857,1.149,1.323c0.141,0.182,0.292,0.355,0.441,0.531c0.017,0.068,0.03,0.136,0.046,0.204H222.248z"/>
				<path style="fill:#D2A27C;" d="M236.911,130.805c-0.097-0.579-0.224-1.152-0.421-1.706c-0.006-0.046-0.01-0.085-0.014-0.106
					c-0.201-1.422-0.83-2.81-1.632-3.99c-0.993-1.461-2.431-2.791-4.149-3.321c-1.949-0.601-3.726,0.146-5.646,0.372
					c1.439,0.32,2.801,1.149,3.943,2.047c2.058,1.619,3.815,4.051,4.282,6.703h-0.168c-0.059-0.161-0.117-0.329-0.173-0.487
					c-0.181-0.512-0.387-1.043-0.673-1.518c-0.723-1.648-1.911-3.126-3.246-4.23c-1.061-0.877-2.311-1.684-3.644-2.066
					c-1.428-0.41-3.321-0.231-4.672,0.418c-0.048,0.022-0.169-0.044-0.115-0.099c0.479-0.486,1.16-0.601,1.802-0.747
					c0.806-0.183,1.61-0.222,2.426-0.075c0.023,0.004,0.045,0.011,0.068,0.016c-0.021-0.028-0.028-0.061,0.006-0.08
					c1.369-0.771,3.186-1.12,4.746-0.945c1.557,0.175,2.961,0.994,4.099,2.04c1.928,1.771,3.131,4.25,3.378,6.846
					c0.016,0.17,0.07,0.537,0.091,0.928H236.911z"/>
			</g>
			<path style="fill:#1B374F;" d="M213.148,21.41c-2.226-1.042-3.947-2.776-5.546-4.602c-1.706-1.949-3.272-4.017-4.997-5.947
				c-2.89-3.235-6.653-6.337-11.146-6.719c-1.07-0.091-2.326-0.012-3.276,0.514c-0.686-0.731-1.649-1.2-2.626-1.471
				c-3.39-0.94-7.104-0.07-10.261,1.261c-7.417,3.125-13.489,8.673-17.852,15.384c-0.985,1.515-1.918,3.093-2.776,4.685
				c-0.731,1.355-1.606,2.976-1.436,4.568c0.033,0.306,0.489,0.134,0.606,0.011c0.129-0.135,0.25-0.279,0.373-0.422
				c-0.048,0.58-0.041,1.16,0.041,1.737c0.005,0.046,0.014,0.092,0.022,0.138c0.042,0.255,0.094,0.509,0.17,0.762
				c0.45,1.496,1.663,2.489,2.784,3.491c1.223,1.093,2.101,2.347,2.759,3.847c0.636,1.45,1.017,2.986,1.473,4.497
				c0.258,0.854,0.541,1.702,0.82,2.549c0.283,0.861,0.609,1.716,1.137,2.46c0.186,0.262,0.652-0.028,0.658-0.291
				c0.022-0.967-0.076-1.923-0.098-2.889c-0.022-0.961,0.105-1.89,0.356-2.819c0.005-0.017,0.011-0.033,0.016-0.049
				c0.14-0.001,0.282-0.015,0.423-0.041c0.026,0.005,0.041,0.019,0.076,0.014c1.314-0.188,2.614-0.747,3.796-1.331
				c0.894-0.442,1.75-0.963,2.566-1.54c3.364-1.202,6.276-3.555,8.352-6.445c1.129-1.573,2.016-3.319,2.656-5.145
				c0.269-0.767,0.466-1.535,0.629-2.308c-0.205,1.241-0.531,2.471-0.907,3.632c-1.087,3.355-2.953,6.362-5.475,8.827
				c-1.451,1.418-3.084,2.611-4.768,3.736c-0.212,0.142-0.044,0.36,0.168,0.239c2.893-1.642,5.522-3.856,7.488-6.55
				c2.134-2.926,3.519-6.456,4.016-10.04c0.133-0.957,0.281-2,0.157-2.965c-0.002-0.012-0.006-0.038-0.009-0.054
				c0.368-0.107,0.742-0.192,1.119-0.262c0.191-0.017,0.381-0.028,0.566-0.036c0.83-0.034,1.652,0.073,2.454,0.281
				c0.019,0.005,0.039,0.013,0.058,0.019c0.078,5.86,3.653,11.299,8.556,14.448c1.459,0.937,3.065,1.678,4.794,1.907
				c0.154,0.02,0.365-0.278,0.156-0.326c-3.091-0.704-5.761-2.55-7.952-4.793c-2.202-2.255-3.855-4.948-4.623-8.021
				c-0.14-0.559-0.243-1.125-0.329-1.694c0.033,0.145,0.056,0.292,0.1,0.434c0.255,0.809,0.586,1.596,0.948,2.362
				c1.63,3.454,4.156,6.747,7.412,8.806c0.556,0.351,1.141,0.649,1.744,0.901c0.637,0.493,1.288,0.964,1.951,1.413
				c0.66,0.446,1.357,0.83,2.054,1.213c0.273,0.15,0.587,0.326,0.912,0.422c-0.005,0.354-0.044,0.709-0.08,1.054
				c-0.143,1.362-0.682,2.698-0.602,4.079c0.018,0.315,0.44,0.216,0.551,0.01c0.761-1.408,1.304-2.902,1.951-4.362
				c0.124-0.278,0.256-0.553,0.387-0.829c0.095-0.158,0.188-0.317,0.283-0.475c0.021,0,0.041,0.002,0.062,0.002
				c0.241-0.006,0.671-0.495,0.281-0.577c1.154-1.926,2.32-3.845,3.517-5.742c1.006-1.595,3.419-3.531,1.721-5.491
				c-0.338-0.39-0.764-0.693-1.189-0.995c0.618,0.257,1.216,0.556,1.773,0.963c0.297,0.217,0.732-0.174,0.69-0.484
				c-0.243-1.799-1.565-3.1-2.933-4.212c1.001,0.087,2.004,0.209,2.982-0.077C213.013,22.022,213.51,21.58,213.148,21.41z"/>
		</g>
		<g>
			<g>
				<path style="fill:#7D8282;" d="M138.667,84.848c-1.542,0-2.756,1.317-2.63,2.854l3.979,48.567h0.581h80.472h0.581l3.979-48.567
					c0.126-1.537-1.087-2.854-2.63-2.854H138.667z"/>
				<path style="fill:#9BA0A0;" d="M140.379,85.411c-1.48,0-2.644,1.292-2.523,2.799l3.817,47.641h0.558h77.204h0.557l3.817-47.641
					c0.121-1.508-1.043-2.799-2.523-2.799H140.379z"/>
				<path style="fill:#7D8282;" d="M185.654,111.802c0,2.662-2.158,4.821-4.821,4.821s-4.821-2.158-4.821-4.821
					c0-2.662,2.158-4.821,4.821-4.821S185.654,109.139,185.654,111.802z"/>
				<path style="fill:#BEC0C2;" d="M185.362,111.51c0,2.501-2.028,4.529-4.529,4.529s-4.529-2.028-4.529-4.529
					c0-2.501,2.028-4.529,4.529-4.529S185.362,109.009,185.362,111.51z"/>
				<path style="fill:#BEC0C2;" d="M220.38,86.21h-33.845h-12.274h-33.845c-2.542,0.29-1.743,3.922-1.743,3.922
					c0.163-2.905,2.397-2.978,2.397-2.978h78.656c0,0,2.233,0.073,2.397,2.978C222.123,90.131,222.922,86.5,220.38,86.21z"/>
			</g>
			<g>
				<g>
					<g>
						<path style="fill:#EDEAD3;" d="M284.835,123.009c0,0,0.829-2.171,4.346-1.628c3.516,0.543,3.285,6.099-0.073,8.472
							c-2.833,2.003-8.288,2.923-8.288,2.923v-1.418c0,0,4.079-0.113,6.956-2.257c3.068-2.286,2.569-5.557,0.781-6.02
							c-2.475-0.641-3.974,2.662-3.974,2.662L284.835,123.009z"/>
						<path style="fill:#E2DFCA;" d="M283.808,130.895c-1.667,0.426-2.988,0.463-2.988,0.463v1.418c0,0,0.967-0.164,2.296-0.501
							C283.355,131.819,283.587,131.36,283.808,130.895z"/>
						<path style="fill:#E2DFCA;" d="M285.936,123.878c0.173-0.751,0.331-1.507,0.437-2.268c-1.191,0.495-1.538,1.399-1.538,1.399
							l-0.25,2.734C284.584,125.743,285.067,124.681,285.936,123.878z"/>
						<path style="fill:#EDEAD3;" d="M285.838,120.437l-10.288-0.134h-0.304l-10.288,0.134c0,0,0.447,7.128,4.15,13.418
							c0.003,0.006,0.006,0.011,0.01,0.017c0,0,0,0,0,0l0,0c0.347,0.572,3.026,1.017,6.281,1.017c3.287,0,5.987-0.454,6.291-1.034
							C285.391,127.564,285.838,120.437,285.838,120.437z"/>
						<ellipse style="fill:#BDBDAC;" cx="275.397" cy="120.437" rx="10.44" ry="0.944"/>
					</g>
				</g>
			</g>
			<g>
				<g>
					<rect x="68.004" y="133.455" style="fill:#546657;" width="230.111" height="49.875"/>
				</g>
				<g>
					<rect x="68.004" y="133.455" style="fill:#72533D;" width="230.111" height="6.848"/>
				</g>
				<g>
					<rect x="61.031" y="132.87" style="fill:#1B374F;" width="242.44" height="5.797"/>
				</g>
			</g>
		</g>
	</g>
</g>
</svg>
